<?xml version="1.0" encoding="UTF-8" standalone="no"?>
<!-- Created with Inkscape (http://www.inkscape.org/) -->

<svg
   width="97.859619mm"
   height="35.309891mm"
   viewBox="0 0 97.859619 35.309891"
   version="1.1"
   id="svg5"
   xml:space="preserve"
   xmlns:inkscape="http://www.inkscape.org/namespaces/inkscape"
   xmlns:sodipodi="http://sodipodi.sourceforge.net/DTD/sodipodi-0.dtd"
   xmlns="http://www.w3.org/2000/svg"
   xmlns:svg="http://www.w3.org/2000/svg"><sodipodi:namedview
     id="namedview7"
     pagecolor="#ffffff"
     bordercolor="#000000"
     borderopacity="0.25"
     inkscape:showpageshadow="2"
     inkscape:pageopacity="0.0"
     inkscape:pagecheckerboard="0"
     inkscape:deskcolor="#d1d1d1"
     inkscape:document-units="mm"
     showgrid="false"
     inkscape:lockguides="true" /><defs
     id="defs2" /><g
     inkscape:label="Layer 1"
     inkscape:groupmode="layer"
     id="layer1"
     transform="translate(-36.962663,-147.29821)"><path
       style="fill:#000000;stroke:#000000;stroke-width:0.114307;stroke-dasharray:none;stroke-opacity:1"
       d="m 37.025217,182.48966 c -0.0627,-0.0988 0.415944,-0.48503 0.98366,-0.79356 1.987261,-1.08 5.389983,-1.64587 9.25301,-1.53875 2.293432,0.0636 3.79348,0.20317 7.087288,0.65941 1.430535,0.19816 4.328586,0.28167 5.334935,0.15375 0.795753,-0.10113 1.833132,-0.35362 2.030277,-0.49408 0.118951,-0.0847 0.09179,-0.1313 -0.268169,-0.45939 -0.234304,-0.21357 -0.497419,-0.55736 -0.633997,-0.8284 -0.468481,-0.92971 -0.477565,-1.03655 -0.707397,-8.31823 -0.110168,-3.49042 -0.06495,-6.03903 0.119757,-6.75084 0.139183,-0.53636 0.403363,-0.93298 0.729141,-1.09471 0.304382,-0.1511 1.332864,-0.22709 1.715278,-0.12675 0.596816,0.15659 0.975234,0.60737 1.173991,1.39848 0.157392,0.62646 0.236816,2.17839 0.239327,4.6765 0.0015,1.55464 0.04828,2.93467 0.133597,3.94643 0.182756,2.16728 0.184302,4.36084 0.0035,5.00892 -0.23802,0.8533 -0.57691,1.43249 -1.165494,1.99192 l -0.538702,0.51201 0.219958,0.0817 c 0.434633,0.16138 1.483794,0.37847 2.439603,0.5048 0.870997,0.11511 2.072659,0.12977 11.409752,0.13923 5.94486,0.006 11.575826,0.0477 13.084219,0.097 12.913319,0.42121 15.821809,0.0698 16.366749,-1.97728 0.13687,-0.5142 0.0347,-0.88167 -0.34518,-1.24221 -0.86151,-0.81751 -3.05916,-1.32078 -6.622045,-1.51645 l -0.958822,-0.0526 -0.83247,0.79543 c -2.33201,2.22823 -4.850262,3.34037 -7.816293,3.4519 -2.764665,0.10395 -5.245967,-0.59495 -7.646605,-2.15382 -1.146394,-0.7444 -2.788437,-2.35897 -3.575246,-3.51542 -1.078148,-1.58466 -1.786391,-3.2486 -2.212773,-5.19865 -0.210309,-0.96186 -0.215871,-1.05039 -0.22173,-3.52902 -0.0066,-2.84445 -0.05153,-3.17273 -0.608557,-4.45856 -0.799539,-1.84566 -2.663547,-3.6763 -4.818212,-4.73197 -0.334256,-0.16377 -0.607575,-0.28885 -0.607377,-0.27794 2.33e-4,0.0109 0.08698,0.22473 0.192857,0.47518 0.324076,0.76661 0.2425,1.45022 -0.238388,1.99767 -0.731184,0.83241 -2.476801,1.33212 -4.627765,1.32477 -2.18273,-0.007 -3.592583,-0.5046 -4.051679,-1.42874 -0.213902,-0.43059 -0.178745,-0.90445 0.108016,-1.45589 0.586453,-1.12776 1.509406,-1.76165 2.957358,-2.03116 0.377123,-0.0702 0.566037,-0.14589 0.647737,-0.25956 0.148079,-0.206 0.535412,-0.36203 1.163285,-0.46858 0.971784,-0.1649 2.006871,0.15902 2.993165,0.93668 0.558381,0.44027 0.417252,0.42182 2.086367,0.2728 0.5273,-0.047 0.930341,-0.10932 0.895647,-0.13831 -0.0347,-0.0291 -0.238316,-0.11562 -0.452492,-0.19248 -1.064468,-0.38205 -1.094014,-1.13053 -0.06165,-1.56175 1.190735,-0.49738 4.03858,-0.62944 4.964695,-0.23024 0.541204,0.23328 0.639741,0.53022 0.304706,0.91821 l -0.205065,0.23748 0.224535,-0.0528 c 1.105547,-0.25961 2.26445,-0.83889 2.894137,-1.44666 0.596336,-0.57557 0.724764,-0.84826 1.113749,-2.36477 0.364309,-1.42031 0.587912,-1.89585 1.138607,-2.42152 1.078949,-1.02991 3.137914,-1.5012 6.95829,-1.59274 3.577472,-0.0858 5.419147,0.33518 6.642651,1.51811 0.593795,0.5741 0.858382,1.05702 1.650887,3.01307 0.817773,2.01845 1.182023,2.6856 1.854403,3.3964 0.421409,0.4455 0.787016,0.64201 1.787937,0.96105 2.12513,0.67735 3.10716,1.50144 2.98603,2.50579 -0.0418,0.34608 -0.026,0.41958 0.11658,0.54411 0.24169,0.21112 0.8618,1.12724 1.17626,1.73774 0.69319,1.34578 1.25942,3.25163 1.5486,5.21231 0.19998,1.35587 0.2281,3.18195 0.11664,7.57562 -0.0727,2.86488 -0.0351,3.52826 0.26477,4.6748 0.47323,1.80944 1.5524,2.89459 3.24318,3.26114 0.47387,0.1027 0.83742,0.11991 1.84644,0.0872 1.31893,-0.0427 2.25897,-0.20276 4.33274,-0.7376 1.90611,-0.4916 3.80231,-0.78474 5.94094,-0.91842 3.89852,-0.24369 8.31863,0.44294 11.66045,1.81138 0.77207,0.31614 0.89323,0.39215 0.78821,0.49448 -0.0482,0.047 -0.33519,-0.0353 -0.80159,-0.22995 -1.7958,-0.74931 -4.08883,-1.33736 -6.45084,-1.65434 -1.23815,-0.16615 -4.6066,-0.23066 -6.01404,-0.11515 -1.54866,0.12709 -3.57201,0.47087 -5.19163,0.8821 -2.45914,0.62438 -4.05923,0.85611 -5.22749,0.75708 -2.69077,-0.22811 -4.09695,-1.60167 -4.54763,-4.4422 -0.20414,-1.28659 -0.21996,-2.31799 -0.0833,-5.42633 0.14056,-3.1964 0.10833,-4.44671 -0.15953,-6.18814 -0.39861,-2.59144 -1.19564,-4.72638 -2.3358,-6.25673 -0.27874,-0.37414 -0.50623,-0.53311 -0.50623,-0.35376 0,0.13806 -0.65503,0.78148 -0.99076,0.9732 -0.82062,0.46864 -1.5915,0.0997 -1.81886,-0.87045 -0.16065,-0.68548 0.21177,-1.31339 0.84022,-1.41663 0.42931,-0.0705 1.05294,0.10619 1.56895,0.44457 0.37441,0.24552 0.39708,0.25096 0.44411,0.10658 0.0854,-0.26212 -0.18627,-0.79614 -0.57425,-1.12893 -0.43336,-0.37172 -1.3235,-0.79418 -2.39,-1.1343 -0.42835,-0.1366 -0.960093,-0.36461 -1.181652,-0.50666 -0.891115,-0.57132 -1.551995,-1.64448 -2.590033,-4.20582 -0.348582,-0.86011 -0.741112,-1.73099 -0.872281,-1.93526 -0.711582,-1.10817 -1.797441,-1.72443 -3.611547,-2.04967 -0.633099,-0.11349 -1.157713,-0.13882 -2.803765,-0.13534 -3.999946,0.008 -6.292188,0.47321 -7.424563,1.50536 -0.486763,0.44367 -0.80667,1.11536 -1.067521,2.24139 -0.110051,0.47507 -0.268264,1.05276 -0.351582,1.28377 -0.462906,1.2834 -1.540359,2.0925 -3.587023,2.69364 -1.704751,0.50069 -5.622599,1.18496 -6.786758,1.18533 -0.160632,5e-5 -0.292058,0.0343 -0.292058,0.076 0,0.0418 0.04158,0.0759 0.0924,0.0759 0.16481,0 1.596996,0.82722 2.253819,1.30178 1.732285,1.25161 3.002742,2.98784 3.545628,4.84554 0.208341,0.71292 0.210834,0.74899 0.222952,3.22544 0.01332,2.72136 0.08799,3.39753 0.544844,4.93303 1.417392,4.76402 5.087069,8.19672 9.890348,9.25164 2.802277,0.61544 5.763574,0.1507 8.19715,-1.28649 1.103837,-0.65189 2.978949,-2.18808 2.978949,-2.44052 0,-0.0965 -0.549795,-0.10561 -4.223982,-0.0696 -3.444793,0.0339 -4.384178,0.021 -5.09237,-0.0695 -1.145434,-0.14632 -2.076027,-0.41283 -3.027988,-0.86718 -0.428349,-0.20443 -1.091094,-0.49667 -1.472771,-0.64942 -1.228202,-0.49151 -1.810429,-0.85327 -2.623645,-1.63016 -0.816884,-0.78039 -1.217605,-1.32839 -1.748136,-2.39063 -1.598058,-3.19964 -1.662633,-7.65621 -0.15355,-10.59714 0.99375,-1.93663 2.416268,-3.07007 4.794166,-3.81989 5.649396,-1.78145 12.057193,-0.14623 15.120644,3.85865 2.084685,2.72535 2.854855,6.39607 2.078245,9.90529 -0.43225,1.95324 -1.325254,3.8697 -2.535362,5.4411 -0.227869,0.2959 -0.414306,0.55546 -0.414306,0.57678 0,0.0213 0.429321,0.0617 0.954059,0.09 3.322819,0.17818 5.598219,0.70223 6.477239,1.49177 0.63105,0.56683 0.73945,1.23994 0.32649,2.02736 -0.50032,0.95398 -1.54796,1.40305 -3.97951,1.70582 -1.06315,0.13238 -8.425062,0.12851 -13.046272,-0.007 -2.367008,-0.0694 -5.651233,-0.0945 -9.891045,-0.0759 -11.390352,0.0503 -12.949423,0.0204 -14.875513,-0.28482 -0.406935,-0.0645 -1.049857,-0.21729 -1.428716,-0.33956 l -0.688835,-0.22232 -0.674104,0.22376 c -1.753172,0.58195 -4.054315,0.67 -7.081936,0.27096 -0.459371,-0.0606 -1.345414,-0.17774 -1.968983,-0.26044 -2.898018,-0.38435 -6.60532,-0.51487 -8.796227,-0.30971 -2.699213,0.25279 -5.067006,0.95196 -6.20296,1.83164 -0.300515,0.23272 -0.381854,0.25988 -0.451126,0.15066 z m 25.874144,-2.79672 c 1.188086,-1.15425 1.408383,-2.329 1.115126,-5.94649 -0.110439,-1.36234 -0.164397,-2.69531 -0.165892,-4.09822 -0.0028,-2.63512 -0.108726,-4.69599 -0.273319,-5.31814 -0.260803,-0.98579 -0.541489,-1.20075 -1.56793,-1.20075 -0.914722,0 -1.168344,0.12533 -1.403518,0.69356 -0.334469,0.80813 -0.412167,2.77283 -0.256611,6.48872 0.04344,1.0378 0.112519,3.08222 0.153499,4.54316 0.08968,3.19696 0.190944,3.81427 0.75672,4.61257 0.236317,0.33344 0.769998,0.73787 0.9737,0.73787 0.07752,0 0.378214,-0.23052 0.668225,-0.51228 z m 32.070024,-3.51004 h 3.056073 l 0.500094,-0.66405 c 1.882008,-2.4991 2.799978,-5.11838 2.799438,-7.98773 -5.9e-4,-2.98916 -0.9641,-5.6397 -2.802603,-7.70951 -2.714348,-3.05584 -7.960328,-4.53381 -12.747718,-3.59144 -1.44409,0.28425 -3.055283,0.90114 -4.010936,1.53569 -1.692516,1.12382 -2.82442,3.17159 -3.187923,5.76741 -0.107583,0.76826 -0.1062,2.55744 0.0026,3.42866 0.179381,1.43579 0.762843,3.24227 1.394843,4.31866 0.46404,0.79031 1.211193,1.68377 1.805018,2.15845 0.423325,0.3384 1.572951,0.99832 1.739125,0.99832 0.03049,0 -0.163835,-0.22841 -0.431843,-0.5076 -1.462898,-1.5239 -2.198225,-3.46121 -2.198225,-5.7915 0,-3.42154 1.721406,-6.45454 4.329871,-7.62894 0.735166,-0.33099 1.720084,-0.56235 2.71299,-0.6373 2.679531,-0.20225 5.201508,0.68822 7.075806,2.49839 2.215668,2.13986 3.020764,5.14469 2.124443,7.929 -0.430346,1.33684 -0.998169,2.27837 -1.955518,3.24256 -1.530284,1.54122 -3.64608,2.33736 -6.211687,2.33736 -0.852742,0 -1.892531,-0.0886 -2.331902,-0.19861 -0.126085,-0.0316 -0.133506,-0.024 -0.03892,0.0396 0.165976,0.11164 1.405846,0.37795 2.141796,0.46002 0.342663,0.0382 1.198134,0.0544 1.901047,0.036 0.70292,-0.0184 2.653269,-0.0334 4.334108,-0.0334 z m -4.638608,-0.64331 c 1.244344,-0.16602 2.273321,-0.49453 3.154234,-1.00707 2.070516,-1.20464 3.433604,-3.34295 3.710949,-5.82147 0.404322,-3.61326 -2.19979,-7.18727 -6.023609,-8.26705 -1.849138,-0.52217 -4.019173,-0.44086 -5.669022,0.2124 -3.449159,1.36572 -5.294143,6.30377 -3.886981,10.40341 0.401827,1.17067 1.007092,2.0913 1.949019,2.96449 0.692943,0.64238 1.114097,0.90335 1.743435,1.0803 1.835111,0.51598 3.399348,0.65147 5.021975,0.43499 z M 67.399021,160.18045 c 1.350577,-0.33027 2.014241,-0.70845 2.331298,-1.32846 0.107419,-0.21004 0.195309,-0.48854 0.195309,-0.61886 0,-0.37166 -0.21063,-0.96969 -0.459386,-1.30431 l -0.227276,-0.30574 -1.428491,-0.0389 c -1.590582,-0.0433 -2.373046,-0.17748 -2.84195,-0.48756 -0.254483,-0.16829 -0.33967,-0.18508 -0.709882,-0.14002 -1.202938,0.14647 -2.196648,0.76277 -2.769836,1.71789 -0.751293,1.25191 -0.105449,2.17138 1.812025,2.57974 0.918208,0.19555 3.161883,0.15511 4.098189,-0.0739 z m 34.840259,0.10668 c 0.26286,-0.13245 1.01995,-0.92347 1.01995,-1.06564 0,-0.24549 -0.89708,-0.7675 -1.37282,-0.79884 -0.45746,-0.0301 -0.59168,0.006 -0.81387,0.22317 -0.18576,0.18103 -0.22765,0.28622 -0.22765,0.57164 0,0.90606 0.68155,1.42889 1.39439,1.06967 z m -34.013822,-3.99275 c -0.613685,-0.23971 -3.050649,-0.55422 -3.050649,-0.39372 0,0.0968 0.804009,0.31022 1.479763,0.39298 0.737812,0.0904 1.801597,0.0909 1.570886,7.1e-4 z m 0.376171,-0.30165 c -0.107089,-0.0831 -0.455741,-0.27871 -0.774783,-0.43469 -0.560858,-0.27421 -0.607308,-0.28357 -1.401881,-0.28268 -0.648659,7.1e-4 -0.887438,0.0317 -1.133332,0.14654 l -0.311529,0.14564 0.842612,0.0561 c 0.784626,0.0522 2.186009,0.29627 2.571744,0.44785 0.308928,0.12141 0.413741,0.0816 0.207169,-0.0788 z m 5.114655,-0.18671 c 0.769495,-0.12161 1.837026,-0.42475 2.296268,-0.65206 0.156584,-0.0775 0.359452,-0.23353 0.45082,-0.34671 0.163814,-0.20293 0.164045,-0.20782 0.01659,-0.3515 -0.636645,-0.62039 -4.482764,-0.38331 -5.418577,0.33399 -0.263451,0.20194 -0.254261,0.38973 0.0305,0.62322 0.265679,0.21784 0.633449,0.34973 1.201529,0.43089 0.597647,0.0854 0.652357,0.0839 1.42287,-0.0378 z"
       id="path1044" /></g></svg>
