<?xml version="1.0" encoding="UTF-8" standalone="no"?>
<!-- Created with Inkscape (http://www.inkscape.org/) -->

<svg
   width="107.94913mm"
   height="65.39782mm"
   viewBox="0 0 107.94913 65.39782"
   version="1.1"
   id="svg5"
   xml:space="preserve"
   xmlns:inkscape="http://www.inkscape.org/namespaces/inkscape"
   xmlns:sodipodi="http://sodipodi.sourceforge.net/DTD/sodipodi-0.dtd"
   xmlns="http://www.w3.org/2000/svg"
   xmlns:svg="http://www.w3.org/2000/svg"><sodipodi:namedview
     id="namedview7"
     pagecolor="#ffffff"
     bordercolor="#000000"
     borderopacity="0.25"
     inkscape:showpageshadow="2"
     inkscape:pageopacity="0.0"
     inkscape:pagecheckerboard="0"
     inkscape:deskcolor="#d1d1d1"
     inkscape:document-units="mm"
     showgrid="false"
     inkscape:lockguides="true" /><defs
     id="defs2" /><g
     inkscape:label="Layer 1"
     inkscape:groupmode="layer"
     id="layer1"
     transform="translate(-16.261048,-66.571859)"><path
       style="fill:#000000;stroke:#000000;stroke-width:0.0921471;stroke-dasharray:none;stroke-opacity:1"
       d="m 20.737435,131.7607 c -1.00308,-0.25748 -1.41687,-0.70095 -2.080274,-2.2295 -1.485534,-3.42281 -2.723079,-13.86942 -2.246062,-18.95991 0.312845,-3.33851 0.540825,-2.27868 0.449041,2.08754 -0.182323,8.67321 1.495282,17.61724 3.473461,18.51855 3.002402,1.36799 25.479693,-0.6265 34.4491,-3.05678 2.009861,-0.54458 1.98573,-0.4567 1.827138,-6.6539 -0.186194,-7.27585 -1.28999,-15.99519 -2.307583,-18.22855 -0.483323,-1.06079 -1.261578,-1.04506 -2.402843,0.0486 -1.89221,1.81319 -6.28263,6.94986 -10.015339,11.71766 -3.243533,4.14298 -3.81674,4.75543 -4.450743,4.75543 -1.275845,0 -6.873726,-3.66845 -13.581769,-8.90051 -4.055767,-3.16337 -5.732573,-4.70172 -5.732573,-5.2592 0,-0.23776 0.106828,-0.4323 0.237394,-0.4323 0.130567,0 3.912112,-0.46338 8.40343,-1.02975 9.956664,-1.25556 18.579516,-2.06528 22.758042,-2.13708 l 3.126857,-0.0537 1.172572,-1.09128 c 3.914281,-3.642952 7.93538,-6.107543 11.465147,-7.027162 3.288895,-0.856862 7.021414,-0.02066 8.10493,1.815764 l 0.485369,0.822633 3.847707,-0.334363 c 7.653892,-0.665116 11.389821,-1.533794 15.312865,-3.560547 2.580308,-1.333064 5.385156,-4.028352 6.589796,-6.332388 0.931322,-1.781287 0.979192,-1.959187 0.510762,-1.89836 -0.96268,0.125009 -0.977138,0.05988 -0.977138,-4.404708 v -4.385274 l 10.673538,-4.136634 c 5.87045,-2.275147 10.63551,-4.174678 10.589,-4.221177 -0.0782,-0.07822 -25.716294,3.67193 -27.32083,3.996296 -0.394102,0.07968 -0.716565,0.227387 -0.716565,0.328253 0,0.100867 1.411793,0.881464 3.137331,1.734662 1.725529,0.853199 3.028415,1.587575 2.89529,1.631951 -0.133134,0.04438 -1.612243,-0.565621 -3.286915,-1.355544 -2.693895,-1.270672 -3.035142,-1.504811 -2.960434,-2.031212 0.08239,-0.580636 0.426896,-0.646464 14.285593,-2.729759 7.81062,-1.174126 14.47474,-2.141618 14.80914,-2.149983 0.37472,-0.0093 0.56661,0.109774 0.50014,0.31051 -0.0929,0.280408 -7.74835,3.355276 -19.15272,7.692777 l -3.191994,1.214037 v 4.11288 c 0,3.241826 0.07317,4.112881 0.345432,4.112881 0.505252,0 1.272202,-0.946558 2.333152,-2.879529 1.00426,-1.829737 3.04244,-4.07393 4.58189,-5.045035 1.18917,-0.75015 16.52818,-9.218937 17.08409,-9.432253 0.24983,-0.09587 0.40677,-0.01923 0.40215,0.196365 -0.0128,0.595999 -10.80305,17.804147 -11.21356,17.883206 -0.21153,0.04075 -1.96437,-0.984645 -3.89517,-2.278629 -1.93081,-1.293984 -3.61303,-2.352696 -3.73826,-2.352696 -0.12523,0 -1.03681,0.717334 -2.02572,1.594076 -1.49207,1.322826 -2.02189,2.029874 -3.11357,4.155146 -2.456992,4.783267 -6.546417,7.676765 -13.186812,9.330419 -2.411194,0.600459 -10.216281,1.584939 -12.653634,1.596042 -0.10748,5.22e-4 -0.196573,0.67512 -0.197965,1.499178 -0.002,1.032011 -0.197884,1.917817 -0.630225,2.846377 -1.548702,3.32626 -4.250742,2.67008 -4.727796,-1.14812 -0.176467,-1.412402 -0.153028,-1.494543 0.624797,-2.189531 0.526413,-0.470347 1.356504,-0.835337 2.381094,-1.046963 0.865132,-0.178689 1.572956,-0.409665 1.572956,-0.513282 0,-0.460893 -1.597015,-1.719482 -2.540532,-2.002168 -1.455523,-0.436086 -4.400404,-0.386814 -6.076176,0.101665 -2.790341,0.813367 -6.264,2.951975 -9.853323,6.066339 -1.545632,1.34109 -1.624221,1.46045 -1.112019,1.68901 1.117804,0.49878 2.003236,4.21285 2.80194,11.75316 0.445736,4.20804 0.621491,12.06611 0.295886,13.22914 -0.109177,0.38998 -0.402319,0.81765 -0.651428,0.95036 -1.396908,0.74423 -9.736047,2.17674 -18.4958,3.17724 -5.043452,0.57604 -15.523075,0.89659 -16.991258,0.51972 z m 18.400033,-13.89007 c 0.718323,-0.89572 2.170625,-2.74253 3.227338,-4.10401 2.807474,-3.61719 5.571995,-6.87475 7.905532,-9.31544 l 2.055341,-2.14971 -2.055341,0.003 c -2.080273,0.003 -9.113908,0.54115 -13.650773,1.04375 -7.168908,0.7942 -17.614844,2.1615 -17.79649,2.32946 -0.838715,0.77545 16.782492,13.77418 18.728135,13.81529 0.154121,0.003 0.867936,-0.72694 1.586258,-1.62267 z m 33.160527,-15.58939 c 1.196085,-1.2516 1.983294,-4.15905 1.381982,-5.104231 -0.352645,-0.554311 -3.538749,0.254621 -4.215743,1.070347 -0.713389,0.859584 -0.165372,3.735084 0.846972,4.444164 0.800171,0.56046 1.122762,0.49384 1.986789,-0.41028 z M 118.05082,76.374608 c 2.54802,-4.156116 4.86311,-7.885782 5.14462,-8.288147 0.28153,-0.402366 0.46975,-0.771166 0.41828,-0.819556 -0.0514,-0.04839 -0.973,0.407972 -2.04785,1.014138 -1.07486,0.606166 -4.81821,2.675196 -8.31855,4.597842 -6.82592,3.749296 -8.71282,5.155545 -10.3553,7.717491 -0.47796,0.745516 -0.86901,1.424021 -0.86901,1.507787 0,0.08377 0.70963,-0.438257 1.57696,-1.160053 0.86732,-0.721797 1.63131,-1.31236 1.69776,-1.31236 0.0664,0 1.78713,1.112519 3.82376,2.472262 2.88573,1.926642 3.76845,2.401077 3.99975,2.149715 0.16326,-0.1774 2.38156,-3.723004 4.92958,-7.879119 z"
       id="path1784" /></g></svg>
