<?xml version="1.0" encoding="UTF-8" standalone="no"?>
<!-- Created with Inkscape (http://www.inkscape.org/) -->

<svg
   width="159.53667mm"
   height="29.228125mm"
   viewBox="0 0 159.53667 29.228125"
   version="1.1"
   id="svg5"
   xml:space="preserve"
   sodipodi:docname="heart-line-art.svg"
   inkscape:version="1.2.2 (732a01da63, 2022-12-09)"
   xmlns:inkscape="http://www.inkscape.org/namespaces/inkscape"
   xmlns:sodipodi="http://sodipodi.sourceforge.net/DTD/sodipodi-0.dtd"
   xmlns="http://www.w3.org/2000/svg"
   xmlns:svg="http://www.w3.org/2000/svg"><sodipodi:namedview
     id="namedview7"
     pagecolor="#ffffff"
     bordercolor="#000000"
     borderopacity="0.25"
     inkscape:showpageshadow="2"
     inkscape:pageopacity="0.0"
     inkscape:pagecheckerboard="0"
     inkscape:deskcolor="#d1d1d1"
     inkscape:document-units="mm"
     showgrid="false"
     inkscape:lockguides="true"
     inkscape:zoom="2.0176629"
     inkscape:cx="238.64244"
     inkscape:cy="53.031653"
     inkscape:window-width="1920"
     inkscape:window-height="1009"
     inkscape:window-x="2648"
     inkscape:window-y="-8"
     inkscape:window-maximized="1"
     inkscape:current-layer="layer1" /><defs
     id="defs2" /><g
     inkscape:label="Layer 1"
     inkscape:groupmode="layer"
     id="layer1"
     transform="translate(-7.6870055,-150.05154)"><path
       style="fill:#000000;stroke:#000000;stroke-width:0.865;stroke-dasharray:none;stroke-opacity:1"
       d="m 92.046373,177.43574 c -0.873125,-0.67907 -1.963293,-1.58821 -2.422597,-2.02031 l -0.835096,-0.78564 -2.339904,0.54641 c -5.461841,1.27543 -9.937586,1.34657 -16.36282,0.26007 -2.921172,-0.49397 -5.66017,-1.22332 -14.2875,-3.80454 -7.400203,-2.21407 -16.251335,-4.16977 -22.886458,-5.05688 -4.358258,-0.58269 -13.229226,-0.66358 -15.965342,-0.14559 -2.898922,0.54881 -5.752531,1.55477 -7.2876031,2.56903 -0.7836509,0.51778 -1.4727873,0.89345 -1.5314142,0.83482 -0.1669946,-0.16699 2.2858783,-1.66758 3.7499843,-2.29411 0.727604,-0.31136 2.334948,-0.82415 3.571875,-1.13953 2.018904,-0.51476 2.925588,-0.57233 8.863541,-0.5628 5.500288,0.009 7.260875,0.11062 10.451042,0.60428 7.719232,1.1945 16.31623,3.21473 24.738542,5.81337 11.858926,3.65898 19.009283,4.33123 26.656771,2.50619 0.982265,-0.23442 1.785937,-0.51657 1.785937,-0.62701 0,-0.11045 -0.66925,-0.77256 -1.487223,-1.47138 -2.223135,-1.89928 -5.562642,-6.0472 -6.665968,-8.27963 -0.863314,-1.7468 -1.164932,-2.2014 -1.164932,-3.97074 0,-1.68565 0.289338,-2.13739 0.825281,-2.88883 1.302457,-1.82616 4.72726,-2.47666 7.069569,-1.34277 1.347742,0.65243 2.81514,2.21355 3.600902,3.83088 0.315508,0.64941 0.668986,1.18075 0.785511,1.18075 0.116523,0 0.21362,-0.44649 0.215771,-0.99219 0.0098,-2.48479 1.32479,-6.02946 2.904087,-7.82818 2.856299,-3.25314 7.923201,-2.13242 9.264401,2.04915 0.50803,1.5839 0.20241,5.2038 -0.62224,7.37009 -1.86696,4.9044 -6.690451,9.79087 -11.724125,11.87721 -0.777444,0.32223 -1.413534,0.67538 -1.413534,0.78478 0,0.10939 0.912371,0.94442 2.027492,1.85562 l 2.027491,1.65672 0.399082,-0.64754 c 0.219493,-0.35614 1.306406,-1.54051 2.41536,-2.63191 2.351095,-2.3139 5.103744,-3.97124 8.644944,-5.20504 4.84023,-1.6864 5.12964,-1.71552 19.27834,-1.93997 13.79142,-0.21879 15.79862,-0.38223 21.07489,-1.71603 6.89641,-1.74336 13.28885,-5.17718 18.95066,-10.17971 1.34204,-1.18577 2.44007,-2.04249 2.44007,-1.90383 0,0.13866 -0.9319,1.12768 -2.07089,2.19782 -5.68091,5.33752 -13.1391,9.1806 -20.94786,10.79407 -4.71335,0.97389 -6.75038,1.11545 -19.31458,1.3423 -6.91224,0.1248 -13.19319,0.3464 -13.95767,0.49243 -7.24437,1.38386 -12.490746,4.37433 -16.204829,9.23685 l -0.661458,0.86599 z m -0.304856,-4.76271 c 2.61928,-1.31452 4.029123,-2.34577 6.125689,-4.48071 3.159164,-3.217 4.904234,-6.75319 5.103104,-10.34088 0.18605,-3.35656 -0.78705,-5.4874 -2.95572,-6.47223 -1.261064,-0.57268 -1.768546,-0.60843 -3.158299,-0.22252 -2.961883,0.82247 -5.420312,5.66659 -5.462145,10.76269 -0.0051,0.61846 -0.101799,1.12448 -0.21494,1.12448 -0.113138,0 -0.53073,-0.74414 -0.927984,-1.65365 -0.893402,-2.04543 -2.541047,-4.00644 -3.985294,-4.74324 -2.224291,-1.13474 -5.219904,-0.50111 -6.475934,1.36981 -0.528351,0.787 -0.607544,1.185 -0.527462,2.65086 0.165356,3.02668 2.227162,6.2962 6.805948,10.79258 2.853357,2.802 2.610099,2.75 5.673037,1.21281 z"
       id="path248"
       sodipodi:nodetypes="sscssssssssscsssssssssssssssssscsssssssssscscssssssssssssss" /></g></svg>
