<?xml version="1.0" encoding="UTF-8" standalone="no"?>
<!-- Created with Inkscape (http://www.inkscape.org/) -->

<svg
   width="122.172mm"
   height="102.14817mm"
   viewBox="0 0 122.172 102.14817"
   version="1.1"
   id="svg5"
   xml:space="preserve"
   inkscape:export-filename="juniper-icon.svg"
   inkscape:export-xdpi="96"
   inkscape:export-ydpi="96"
   xmlns:inkscape="http://www.inkscape.org/namespaces/inkscape"
   xmlns:sodipodi="http://sodipodi.sourceforge.net/DTD/sodipodi-0.dtd"
   xmlns="http://www.w3.org/2000/svg"
   xmlns:svg="http://www.w3.org/2000/svg"><sodipodi:namedview
     id="namedview7"
     pagecolor="#ffffff"
     bordercolor="#000000"
     borderopacity="0.25"
     inkscape:showpageshadow="2"
     inkscape:pageopacity="0.0"
     inkscape:pagecheckerboard="0"
     inkscape:deskcolor="#d1d1d1"
     inkscape:document-units="mm"
     showgrid="false" /><defs
     id="defs2" /><g
     inkscape:label="Layer 1"
     inkscape:groupmode="layer"
     id="layer1"
     transform="translate(-39.03597,-79.006765)"><path
       style="fill:#000000;stroke-width:0.264583"
       d="m 39.53114,143.43351 c 0.710712,0.19772 5.120801,3.57012 5.887885,4.50247 0.90129,1.09548 1.051747,0.70202 0.59281,-1.55031 -0.354612,-1.74031 -0.385332,-2.67956 -0.130696,-3.99488 0.638354,-3.29728 1.716078,-3.95806 1.701108,-1.04292 -0.0092,1.79267 0.131559,2.67303 1.102199,6.89246 0.527385,2.29256 0.680609,2.61488 1.458582,3.0682 1.798446,1.04796 2.17839,1.23045 2.223578,1.06802 0.02555,-0.0918 -0.221,-1.20634 -0.547881,-2.47669 -0.538914,-2.09433 -0.669481,-4.47704 -0.402664,-7.34813 0.247168,-2.65967 1.767225,0.84013 2.693322,6.20114 0.258441,1.49608 0.597361,2.68319 0.753147,2.63802 0.155782,-0.0452 0.704928,-0.54307 1.220259,-1.10654 1.876525,-2.05155 7.6438,-6.07342 8.06126,-5.62159 0.497068,0.53798 -3.587984,5.48481 -6.417794,7.77166 -0.903694,0.73032 -1.55414,1.42411 -1.445435,1.54176 0.300352,0.32509 4.878645,1.68179 5.264635,1.56007 0.24804,-0.0782 0.355744,-0.51652 0.404183,-1.6454 0.07662,-1.78378 0.44002,-2.62909 1.757546,-4.08828 1.125574,-1.24659 3.11229,-1.95866 4.863393,-1.7431 0.638243,0.0785 1.186116,0.0505 1.217509,-0.0623 0.03139,-0.11286 -0.730207,-1.48439 -1.692445,-3.04788 -1.728311,-2.80823 -1.739405,-2.83988 -0.915223,-2.61135 0.880762,0.2442 3.980018,2.88552 5.105561,4.35116 l 0.659325,0.85854 1.880886,-1.07417 c 1.456499,-0.83181 2.358157,-1.12606 3.996083,-1.30429 1.882684,-0.20486 2.416827,-0.14682 4.859579,0.52801 2.340435,0.64693 2.736131,0.69525 2.688237,0.33059 -0.166937,-1.27091 -0.276573,-4.1934 -0.190005,-5.06488 0.132709,-1.3361 0.635543,-1.19263 1.417526,0.40472 0.484549,0.98957 1.513266,5.79217 1.733544,8.09312 0.03316,0.34637 0.431174,-0.55045 1.03063,-2.32228 1.516821,-4.4833 2.42208,-5.92304 2.392687,-3.80541 -0.0079,0.56879 -0.364445,2.9327 -0.792329,5.25313 -0.727769,3.94667 -1.201685,5.45165 -2.134955,6.7798 -0.177566,0.25269 0.677689,-0.0767 1.900564,-0.73199 2.759898,-1.47891 3.872584,-1.91875 4.448552,-1.75853 1.253999,0.34886 0.03683,1.50584 -4.444908,4.22511 -0.578139,0.35081 -1.01632,0.69956 -0.973723,0.77499 0.28724,0.50863 10.046838,-1.92034 10.220228,-2.54362 0.0335,-0.12031 -0.34179,-0.41666 -0.83392,-0.65849 -2.11574,-1.03976 -4.345509,-3.91984 -4.781759,-6.17634 -0.366994,-1.89828 0.05254,-3.7978 0.793275,-3.59173 0.289233,0.0805 0.519123,0.46311 0.580489,0.96622 0.17009,1.39456 2.32899,4.72621 3.932505,6.06872 2.23373,1.8701 3.11347,2.00514 5.86253,0.89982 2.19788,-0.88371 6.6616,-3.42998 6.50354,-3.70988 -0.0431,-0.0759 -1.06196,-0.26293 -2.26461,-0.41541 -3.69791,-0.46895 -11.025263,-3.09641 -10.35702,-3.71381 0.37028,-0.34218 9.57565,1.00629 12.58516,1.84351 1.14051,0.31728 2.08929,0.44419 2.37697,0.31796 0.56958,-0.24995 5.8586,-4.18726 7.55639,-5.62526 1.26586,-1.07214 5.55605,-5.75356 5.44804,-5.94483 -0.0354,-0.0619 -1.05489,-0.0901 -2.26607,-0.0619 -1.21119,0.0282 -2.72385,0.0386 -3.36146,0.023 l -1.15928,-0.0284 -0.3541,1.27288 c -0.19477,0.70009 -0.62222,1.61331 -0.94992,2.02939 -0.54599,0.69327 -4.74832,3.5231 -5.31258,3.57747 -0.28358,0.0273 0.0684,-0.7241 1.85859,-3.96777 1.70007,-3.08039 1.73549,-3.22471 0.85165,-3.47059 -0.72842,-0.20265 -3.81891,-0.32363 -4.10726,-0.1608 -0.30781,0.17384 -0.20098,3.7808 0.16047,5.41841 0.20043,0.90801 0.75246,2.44081 1.22675,3.40623 0.9761,1.98685 0.98702,2.38854 0.0579,2.13006 -1.49476,-0.41583 -3.03058,-2.88862 -3.87885,-6.24537 -0.25166,-0.99575 -0.5146,-1.82755 -0.5843,-1.84844 -0.0698,-0.0205 -0.6333,0.45002 -1.25235,1.04654 -1.1817,1.13857 -5.0935,3.33937 -8.08815,4.55044 -3.166172,1.28045 -2.445312,0.38998 2.91473,-3.60051 1.82086,-1.35561 3.978,-2.8796 4.79365,-3.38667 0.81551,-0.50727 1.44212,-0.99432 1.39218,-1.08275 -0.0498,-0.0885 -0.88087,-0.12568 -1.84651,-0.0828 -1.60979,0.0716 -5.36387,-0.30245 -5.52192,-0.55015 -0.21017,-0.33024 0.6366,-0.51556 2.80257,-0.61389 l 2.43851,-0.1107 -1.51131,-0.49059 c -0.83123,-0.26976 -2.89872,-1.05631 -4.59444,-1.74781 -1.69571,-0.6915 -3.904264,-1.56605 -4.907882,-1.94348 -1.003618,-0.37738 -1.703581,-0.74885 -1.55548,-0.82538 0.67252,-0.34758 5.145802,0.20843 8.846192,1.09955 l 3.98576,0.95986 -1.04928,-1.17319 c -0.57709,-0.64525 -1.29095,-1.62668 -1.58634,-2.18095 -0.29538,-0.55427 -0.97018,-1.56092 -1.49956,-2.23696 -0.52939,-0.67605 -0.91743,-1.39146 -0.86222,-1.58982 0.13383,-0.48109 0.30849,-0.40447 0.89248,0.39154 0.26956,0.36753 1.18799,1.1345 2.04083,1.70443 2.12967,1.42321 3.42584,2.64738 4.05246,3.82733 0.29111,0.54825 0.62253,1.02274 0.73652,1.05442 0.11398,0.0317 0.4046,-0.65186 0.64584,-1.51903 l 0.43862,-1.57667 -1.13593,-1.84421 c -1.03743,-1.68431 -1.30871,-2.57886 -0.7336,-2.41887 0.12257,0.0341 0.66265,0.36971 1.2002,0.74582 1.61106,1.12725 1.7927,1.0997 2.39622,-0.36325 0.29349,-0.71135 0.78631,-1.71065 1.09524,-2.22063 0.74777,-1.23444 0.83908,-0.74038 0.46576,2.51991 -0.16356,1.42849 -0.25763,2.73436 -0.20904,2.90194 0.0486,0.16754 0.98391,1.11708 2.07846,2.11003 1.09455,0.99295 2.33902,2.20733 2.76548,2.69863 0.64637,0.74466 1.02804,0.94899 2.29426,1.22823 1.30529,0.28786 1.41925,0.27668 0.81025,-0.0793 -3.06665,-1.79268 -5.00535,-4.8761 -4.76056,-7.57088 0.10298,-1.13243 1.3323,-3.7743 2.19388,-4.71474 1.25389,-1.36866 3.67926,-2.76459 5.23368,-3.01225 l 1.52494,-0.24298 -1.24762,-2.43673 c -0.68617,-1.34021 -1.22168,-2.52995 -1.18998,-2.64387 0.19849,-0.71354 3.2605,1.66557 5.34306,4.15147 0.88414,1.05536 1.65554,1.89175 1.71421,1.85861 0.0854,-0.0478 -0.67185,-3.33867 -1.31948,-5.73555 -0.0731,-0.27065 -0.50128,-0.55265 -1.09103,-0.71867 -2.4509,-0.69012 -0.46572,-1.14342 7.04716,-1.60978 2.45923,-0.15266 4.64618,-0.41161 4.85992,-0.57543 0.28984,-0.22221 0.44641,-0.9619 0.61609,-2.91109 0.12512,-1.43727 0.32419,-2.98067 0.44242,-3.42977 0.30184,-1.14658 -0.0713,-1.38173 -0.85166,-0.53674 -0.49314,0.53395 -5.83375,4.85312 -6.74602,5.45577 -0.0669,0.0445 -0.17798,-0.0188 -0.24652,-0.14019 -0.0683,-0.12162 0.69292,-1.25869 1.69216,-2.52732 2.04928,-2.60173 4.23529,-5.873208 4.09294,-6.125287 -0.052,-0.09197 -1.35222,0.0021 -2.88947,0.209142 -2.41981,0.32588 -5.69249,0.343114 -8.47472,0.04463 -0.71041,-0.07621 -0.7453,-0.116609 -0.31168,-0.360502 0.8432,-0.474241 8.75277,-2.990079 10.02475,-3.188575 0.66749,-0.104163 1.523,-0.106036 1.90112,-0.0042 0.37807,0.102054 0.77024,0.10878 0.87135,0.01535 0.10114,-0.09341 -0.23993,-1.578615 -0.75789,-3.300433 -1.81923,-6.047605 -2.02767,-11.302623 -0.51299,-12.933157 1.30489,-1.404687 1.47903,-1.264552 1.81175,1.457911 0.16914,1.384069 0.70756,4.036817 1.19649,5.894997 0.48892,1.858172 1.10852,4.551834 1.37686,5.985902 0.69904,3.735755 0.63861,3.654339 2.66667,3.592676 4.54432,-0.138199 10.45444,3.047368 12.96559,6.988456 1.36407,2.14087 0.87574,2.24929 -1.75813,0.39035 -1.20889,-0.85322 -2.698,-1.81914 -3.30912,-2.14653 -1.20048,-0.64309 -7.69384,-2.53305 -8.19927,-2.386491 -0.16941,0.04907 0.3698,0.821321 1.19822,1.716001 1.9666,2.12387 3.47086,4.49316 5.05178,7.95688 1.17644,2.57753 1.46229,3.50105 0.96688,3.12386 -1.12963,-0.8601 -7.48818,-7.93917 -8.39015,-9.3409 -0.64868,-1.00813 -1.21847,-1.67946 -1.26616,-1.49184 -0.048,0.18751 -0.16388,1.83509 -0.25817,3.66109 -0.18851,3.65082 -0.2882,3.39132 2.10297,5.47334 2.6955,2.34698 5.79391,7.13219 6.44644,9.95592 0.18096,0.78304 0.25795,1.46384 0.17111,1.51288 -0.087,0.0488 -0.67646,-0.65205 -1.31026,-1.55797 -1.91515,-2.73741 -5.4403,-7.36298 -5.83325,-7.65417 -0.33901,-0.25122 -0.34982,-0.21379 -0.13412,0.46346 0.33799,1.05984 0.42575,4.6992 0.16873,6.99697 l -0.22064,1.97259 1.39463,1.24507 c 1.5349,1.3703 2.28554,2.77366 2.71962,5.08453 0.24877,1.32433 0.20261,1.76101 -0.36659,3.46822 -0.90285,2.70795 -2.45925,4.3072 -4.92374,5.05928 l -0.74507,0.22738 0.41031,1.18232 c 0.6054,1.74451 0.65524,3.45162 0.16924,5.79821 -1.14499,5.52856 -5.36439,8.16277 -11.47117,7.16159 -0.60079,-0.0985 -0.60131,-0.0923 -0.10057,1.22089 0.54375,1.42601 0.44328,1.70969 -0.42965,1.21309 -1.21571,-0.69162 -3.1668,-3.90993 -3.7015,-6.10559 -0.17137,-0.70374 -0.52227,-0.38441 -0.44958,0.40914 0.0974,1.06381 -1.0327,6.86113 -1.51406,7.76663 -0.60287,1.13407 -1.05706,1.05016 -1.10682,-0.20453 -0.023,-0.58065 -0.13322,-1.8007 -0.24482,-2.71121 -0.34132,-2.7844 0.0625,-6.69333 1.00039,-9.68475 0.45309,-1.44512 0.75896,-2.64538 0.67972,-2.66726 -0.0792,-0.0219 -0.44767,0.309 -0.81877,0.73529 -0.82223,0.94452 -6.85632,5.95176 -7.54345,6.25975 -0.7991,0.3582 -0.69981,0.71825 0.22939,0.83193 1.31421,0.16079 3.83902,1.34661 4.85546,2.28045 0.85207,0.78283 0.87238,0.84774 0.32925,1.0522 -0.4113,0.15484 -1.41309,-0.0142 -3.46151,-0.58403 -2.39243,-0.66555 -2.90076,-0.7369 -2.98902,-0.41958 -0.0585,0.21029 -0.009,0.40932 0.10899,0.44227 0.48096,0.1338 6.07854,9.71455 6.37052,10.9037 0.19974,0.81353 -0.51597,0.46507 -2.35454,-1.14634 -1.19818,-1.05014 -2.08291,-2.19446 -3.37078,-4.35983 l -1.74614,-2.93599 -0.78458,3.27251 c -0.88264,3.68155 -1.68338,5.33702 -3.75036,7.75357 -1.54026,1.80074 -1.93077,1.51864 -1.058,-0.76429 0.34497,-0.90241 1.3006,-4.35246 2.12349,-7.6668 l 1.49627,-6.02607 -1.68526,1.03851 c -0.92689,0.5712 -2.86653,1.6197 -4.31028,2.33008 -1.44376,0.71037 -2.67151,1.45868 -2.7283,1.66295 -0.0568,0.20423 0.11561,1.13057 0.38317,2.05853 0.26757,0.92797 0.54549,2.6305 0.61759,3.7834 0.15348,2.45415 -0.30702,8.47548 -0.69978,9.15031 -0.39739,0.68276 -0.92866,0.40245 -0.85592,-0.45161 0.0932,-1.0939 -0.0787,-2.86755 -0.64974,-6.70324 -0.28149,-1.89087 -0.52488,-3.68875 -0.54086,-3.99529 -0.0408,-0.78133 -0.44538,-0.31031 -1.41374,1.64576 -0.73159,1.47776 -3.866175,5.89931 -5.200608,7.33582 -1.107614,1.19232 -1.243067,0.70175 -0.42336,-1.53331 0.414729,-1.13077 1.205866,-3.02917 1.758154,-4.21867 0.552294,-1.18949 0.969794,-2.22358 0.927794,-2.29797 -0.04196,-0.0744 -0.887447,0.39944 -1.878754,1.05292 -1.767233,1.165 -7.238953,3.67169 -9.051869,4.14686 -0.885486,0.23207 -0.914063,0.22412 -0.800367,-0.22266 0.08443,-0.32962 -0.06384,-0.27637 -0.512504,0.18518 -0.869074,0.89406 -4.389964,5.5865 -4.304827,5.73724 0.03804,0.0674 1.171799,0.0917 2.519497,0.054 1.988841,-0.0555 2.905126,0.0632 4.864945,0.63037 4.468196,1.29305 5.031294,2.27737 1.293461,2.26088 -1.282323,-0.006 -3.15494,-0.16 -4.161352,-0.34298 -3.059976,-0.55638 -3.058714,-0.55821 -1.38236,1.99889 1.4108,2.15202 3.204799,4.09629 3.978202,4.31145 0.197788,0.055 0.45194,0.306 0.564792,0.55775 0.298544,0.66604 -0.70305,0.57836 -3.445291,-0.30158 -2.996607,-0.96156 -3.854123,-1.92534 -4.431802,-4.98097 -0.410957,-2.1737 -0.678644,-2.42967 -1.069942,-1.02312 -0.356504,1.28152 -2.146014,3.91756 -2.577908,3.79742 -0.255334,-0.071 -0.294224,-0.38351 -0.123921,-0.99569 0.162484,-0.58405 0.127979,-0.9256 -0.0999,-0.98899 -0.191442,-0.0533 -2.004602,0.87363 -4.029252,2.05975 -2.024639,1.18613 -3.72378,2.08114 -3.775852,1.98892 -0.371428,-0.65774 4.834269,-5.75431 7.241026,-7.08922 l 1.648766,-0.91448 -3.706009,-1.03099 c -3.779119,-1.05132 -5.988809,-2.0519 -6.359953,-2.87989 -0.422771,-0.94318 0.281198,-0.87089 5.432313,0.5579 2.831253,0.78556 5.303519,1.38043 5.49381,1.32236 0.397101,-0.12112 4.534948,-4.87334 4.420212,-5.07652 -0.04167,-0.0737 -0.578774,-0.035 -1.193536,0.0861 -1.111996,0.21916 -2.389294,0.2927 -3.778489,0.21752 -0.400469,-0.0216 -1.629157,0.39689 -2.730432,0.93015 -3.64473,1.76482 -5.214936,1.70969 -3.081395,-0.10818 l 1.264819,-1.07769 -0.844759,-0.41514 c -0.464624,-0.22828 -0.819031,-0.5076 -0.787596,-0.62061 0.03143,-0.113 0.655989,-0.26158 1.387896,-0.3302 1.307469,-0.12257 4.627277,-1.68967 4.40676,-2.08016 -0.06173,-0.10937 -0.801537,-0.24945 -1.64393,-0.31114 -0.84237,-0.0617 -1.948793,-0.22828 -2.458688,-0.37013 -0.721481,-0.20071 -1.16924,-0.11613 -2.018873,0.38132 -0.600452,0.35162 -1.704245,0.72237 -2.452802,0.824 -1.2838,0.17427 -1.43881,0.2841 -2.731957,1.93589 -2.276195,2.90745 -4.085794,4.48361 -6.724454,5.85697 -2.304222,1.1993 -3.26664,1.44734 -3.085208,0.79516 0.04314,-0.15507 0.525291,-0.60797 1.071444,-1.00643 2.036433,-1.48575 6.834593,-6.767 6.571416,-7.23305 -0.05197,-0.092 -0.563256,0.0809 -1.136273,0.38419 -2.576648,1.36375 -10.802934,3.39365 -12.189618,3.00788 -1.492862,-0.4153 3.257724,-2.78623 9.363134,-4.67296 1.028889,-0.31796 1.886481,-0.63551 1.905739,-0.70568 0.01926,-0.0702 -0.539626,-0.61162 -1.241988,-1.20325 -1.007398,-0.84856 -1.832547,-1.26724 -3.908222,-1.98303 -1.447171,-0.49902 -3.149145,-1.12696 -3.782183,-1.39533 -1.126048,-0.47741 -1.164065,-0.47157 -1.75561,0.27009 -0.332548,0.41692 -1.165412,1.23331 -1.850809,1.81419 -1.17908,0.99929 -1.312895,1.23214 -2.48601,4.326 -1.360175,3.58718 -1.576894,3.98883 -2.077087,3.84968 -0.406286,-0.11303 -0.419141,-0.56256 -0.07522,-2.62992 0.436156,-2.62183 0.414467,-2.68064 -0.762639,-2.06787 -1.391834,0.72457 -3.152762,1.17542 -3.640862,0.93219 -0.323747,-0.16137 -0.09739,-0.42182 1.119612,-1.28834 2.197152,-1.56438 3.646611,-2.9867 4.819822,-4.72956 0.565564,-0.84016 1.253435,-1.69926 1.528614,-1.90912 0.275211,-0.2098 0.52428,-0.45353 0.553562,-0.54152 0.09321,-0.28021 -1.994982,-1.07675 -2.829235,-1.0792 -0.734641,-0.002 -0.875443,0.14036 -1.649925,1.6701 -1.111222,2.19487 -4.489473,5.80452 -6.076304,6.4925 -0.6354,0.27548 -1.213128,0.3984 -1.28386,0.27316 -0.152995,-0.27094 0.988435,-2.54495 2.311376,-4.6048 0.52137,-0.81181 1.596419,-2.03417 2.388984,-2.71637 0.792569,-0.68219 1.459417,-1.30644 1.481891,-1.38722 0.02244,-0.0808 -0.657454,-0.37793 -1.510938,-0.66033 -1.795302,-0.594 -2.0234,-1.09233 -0.572174,-1.24993 l 1.009272,-0.10963 -2.170717,-2.46867 c -1.1939,-1.35776 -2.484064,-3.03929 -2.86705,-3.73675 -0.695546,-1.26665 -0.695577,-1.26788 -0.03106,-1.08301 z m 2.898304,3.94149 c 2.651655,2.95515 6.093867,5.42021 5.081788,3.6392 -0.249745,-0.43948 -5.102925,-4.89544 -6.258501,-5.74625 -1.130251,-0.83216 -0.58569,0.14294 1.176713,2.10705 z m -1.31131,12.84311 c 1.061698,-0.30787 5.371616,-5.47327 5.774153,-6.92027 0.252075,-0.90612 -0.504129,-0.30321 -2.946496,2.34923 -1.778376,1.93134 -2.698081,3.13304 -2.869532,3.74934 -0.147573,0.53045 -0.130182,0.87159 0.04187,0.8217 z m 4.404886,-8.18266 c 0.893323,0.17441 1.589866,0.19872 1.547906,0.054 -0.08758,-0.30201 -2.32288,-0.97429 -3.018785,-0.90789 -0.911252,0.0869 -0.127692,0.54183 1.470871,0.85394 z m 0.833221,-7.64143 c 0.123578,2.05601 1.044108,5.51824 1.611299,6.06028 0.592229,0.56597 0.602343,0.27279 0.06113,-1.77322 -0.258766,-0.97827 -0.650681,-2.78493 -0.870901,-4.01482 -0.220226,-1.22989 -0.486028,-2.2616 -0.590661,-2.29271 -0.287011,-0.085 -0.318968,0.22175 -0.210867,2.02047 z m -0.173335,16.93044 c 1.447116,-0.63783 2.123879,-1.26489 2.387355,-2.21194 0.207086,-0.74441 -0.242325,-0.70525 -0.852364,0.0743 -0.297886,0.38066 -1.122391,1.10905 -1.832229,1.61868 -0.709826,0.50965 -1.261343,0.97946 -1.225575,1.04406 0.03575,0.0647 0.721038,-0.17166 1.522813,-0.52505 z m 4.040337,-8.55017 c 2.261621,0.71086 3.458401,0.80963 2.199354,0.18161 -0.303859,-0.15158 -1.167101,-0.58751 -1.918294,-0.96876 -1.080497,-0.54838 -1.495472,-0.65492 -1.986492,-0.51007 -0.341398,0.1007 -0.642725,0.26238 -0.669665,0.35925 -0.02696,0.0968 1.041856,0.51893 2.375104,0.93796 z m 1.592302,-7.1888 c 0.03814,2.13988 0.50479,4.91512 1.071026,6.36943 0.197859,0.50819 0.369528,1.20476 0.381495,1.54794 0.01196,0.34319 0.142308,0.65752 0.289648,0.6985 0.147347,0.041 1.18727,-0.45664 2.310938,-1.10587 1.618128,-0.93494 2.563154,-1.75777 4.544023,-3.95673 1.375537,-1.52698 2.443231,-2.87861 2.372647,-3.00359 -0.346143,-0.61295 -7.492201,5.14155 -8.217418,6.61726 -0.660586,1.34416 -0.896694,0.85373 -0.946616,-1.96627 -0.03777,-2.13309 -1.530083,-8.27896 -1.786474,-7.35733 -0.02984,0.10716 -0.0385,1.0777 -0.01927,2.15666 z m -3.442608,16.78558 c -0.536268,2.91023 -0.291664,3.04724 0.660025,0.36968 0.510105,-1.43516 1.437851,-3.34059 2.337558,-4.80097 1.651146,-2.68011 1.850739,-3.15707 1.486215,-3.5516 -0.411654,-0.44553 -2.085491,0.92272 -2.765372,2.2605 -0.341475,0.67192 -0.733335,1.43757 -0.870791,1.70142 -0.137444,0.26386 -0.303167,0.83568 -0.368244,1.27072 -0.06508,0.43503 -0.280813,1.67265 -0.479385,2.75025 z m 4.17306,-5.15559 c 0.07785,0.0217 0.604872,-0.52473 1.17125,-1.21416 0.894756,-1.08914 1.098192,-1.21271 1.55156,-0.94231 1.641215,0.97879 12.267102,4.44514 14.153901,4.61726 0.354102,0.0323 0.484598,0.17425 0.384967,0.41888 -0.349224,0.85745 -5.276917,6.79643 -6.847729,8.25306 -0.938236,0.87003 -1.669529,1.64625 -1.625095,1.72493 0.175997,0.31165 2.194616,-0.99776 4.140358,-2.68573 1.912623,-1.6592 3.854128,-4.07284 4.86341,-6.04604 0.720005,-1.40767 1.013702,-1.57444 2.433762,-1.38208 0.730175,0.0989 1.348565,0.10461 1.374226,0.0126 0.02565,-0.092 -3.423286,-1.13253 -7.66431,-2.31235 -4.241018,-1.17982 -8.617873,-2.43894 -9.726346,-2.79807 -1.108463,-0.35912 -2.215912,-0.63139 -2.460981,-0.60511 -0.262965,0.0282 -0.7037,0.5625 -1.075346,1.30359 -0.346363,0.69068 -0.671453,1.33688 -0.722433,1.43597 -0.05091,0.0992 -0.029,0.19791 0.04882,0.21956 z m 3.398343,7.72063 c 4.252838,-0.64359 8.990061,-2.17089 11.670858,-3.76276 2.931061,-1.74045 0.410449,-1.12169 -8.455198,2.07563 -3.755169,1.35426 -4.865464,1.93679 -3.21566,1.68713 z m 6.648129,-9.71634 0.150649,0.85032 4.802089,1.41084 c 2.641143,0.77596 4.9344,1.33607 5.096096,1.24477 0.17504,-0.0983 -0.03933,-0.77647 -0.528116,-1.67159 -0.98655,-1.80668 -1.249355,-4.03907 -0.705592,-5.99369 0.363462,-1.30652 0.347554,-1.40791 -0.27226,-1.73616 -0.362031,-0.19175 -0.79291,-0.43531 -0.957494,-0.54129 -0.164583,-0.10598 -0.931758,-0.23585 -1.70483,-0.28854 -3.118686,-0.21273 -5.046083,1.20564 -5.67239,4.1743 -0.197329,0.93542 -0.291019,2.0834 -0.208165,2.55107 z m 1.766572,-4.05545 c 1.161956,-1.24227 1.858425,-1.57708 3.030906,-1.45708 l 0.934597,0.0957 -0.882572,0.14332 c -1.327258,0.21555 -1.728541,0.60531 -1.985751,1.92871 -0.230471,1.1859 -0.670176,1.52934 -0.654336,0.51112 0.01079,-0.69377 -0.08845,-0.71355 -0.870675,-0.17361 -0.869241,0.60004 -0.679868,0.13613 0.427846,-1.04815 z m 0.65548,8.5734 c 0.599792,0.26796 1.315616,0.46097 1.590719,0.42893 0.461452,-0.0538 0.465229,-0.0855 0.04871,-0.40977 -0.635813,-0.49493 -2.911547,-1.13263 -2.811697,-0.78738 0.04485,0.15481 0.572348,0.50073 1.172138,0.7687 z m 4.480913,-13.76276 c 1.222189,1.84297 2.206978,2.89519 2.60233,2.78055 0.576394,-0.16714 0.359533,-0.81477 -0.671993,-2.00682 -1.466733,-1.69496 -2.922914,-3.01638 -3.003761,-2.72575 -0.03593,0.12918 0.447101,1.00758 1.073424,1.95202 z m 2.897356,4.40336 c 0.125665,0.0349 0.697302,-0.24287 1.270272,-0.61739 0.727543,-0.47554 1.114366,-0.94189 1.282436,-1.54604 0.213405,-0.76711 0.982278,-1.52189 1.424881,-1.39876 0.08815,0.0245 -0.01575,0.14391 -0.230753,0.26536 -0.564571,0.31888 -1.011467,2.18011 -0.720861,3.00248 0.136636,0.38663 0.714954,1.08426 1.285166,1.55029 0.570221,0.46603 0.876914,0.8606 0.681555,0.87681 -0.195361,0.0163 -0.884269,-0.4993 -1.5309,-1.14558 -1.43116,-1.43042 -1.648346,-1.50068 -2.73758,-0.88558 -1.113618,0.62893 -1.527174,2.04259 -1.190715,4.07052 0.562728,3.39155 2.623514,5.41902 6.25217,6.15108 3.067308,0.61879 5.391481,0.38906 7.370581,-0.72856 1.527111,-0.86243 1.801194,-1.14407 2.701731,-2.78203 1.20077,-2.18318 1.265547,-3.09221 0.441276,-6.19274 -0.584733,-2.19949 -1.205018,-2.9537 -3.439158,-4.18166 -3.901593,-2.14448 -10.010223,-1.21475 -12.15562,1.85008 -0.843322,1.20473 -1.016293,1.62497 -0.704502,1.71171 z m -1.027472,11.24865 c 0.329797,0.0917 1.796779,-0.32648 2.244079,-0.63977 0.449612,-0.31494 0.416895,-0.34622 -0.42891,-0.41043 -0.503642,-0.0382 -1.105646,0.0157 -1.337803,0.11973 -0.412563,0.18494 -0.755376,0.85313 -0.477366,0.93047 z m 2.631558,8.14976 c 2.012832,0.98097 5.855774,1.84269 7.078611,1.58726 0.820174,-0.17131 0.865255,-0.14817 1.014957,0.52105 0.129903,0.58077 0.0066,0.96404 -0.722572,2.24517 -0.943367,1.65748 -1.501376,3.22209 -0.944943,2.64953 0.569779,-0.5863 2.382327,-4.29645 2.398032,-4.9086 0.01531,-0.59626 -0.01133,-0.60632 -5.429338,-2.04904 -2.9946,-0.79737 -5.503473,-1.46075 -5.575314,-1.474 -0.49408,-0.0914 0.796227,0.75397 2.180594,1.42864 z m 2.737396,-3.35138 c 0.871179,-0.39503 1.596941,-0.76491 1.612809,-0.82196 0.01587,-0.057 -0.257195,-0.18329 -0.606809,-0.28055 -0.45263,-0.12591 -0.941743,0.0669 -1.698714,0.66981 -0.584692,0.46564 -1.0244,0.9151 -0.977146,0.99878 0.04718,0.0836 0.798683,-0.17106 1.66986,-0.56608 z m 3.373709,-1.51068 c 2.450059,0.13844 6.517498,-0.44038 6.658597,-0.94757 0.04114,-0.14788 -0.142529,-0.26508 -0.408147,-0.26044 -0.265604,0.005 -0.847643,-0.0134 -1.293375,-0.04 -0.864125,-0.0516 -7.621698,0.42661 -8.124241,0.57496 -0.698778,0.20628 0.893001,0.54453 3.167166,0.67304 z M 75.7274,177.48258 c 3.360352,-1.65819 4.704734,-2.71375 5.957089,-4.67733 0.184094,-0.28864 0.230555,-0.55378 0.103291,-0.58917 -0.549583,-0.1529 -7.86338,5.33661 -8.062172,6.05119 -0.03603,0.12949 0.864797,-0.22362 2.00182,-0.78468 z m 5.245104,-14.2422 c 1.16177,-0.15617 2.688303,-1.06469 2.462076,-1.46529 -0.240498,-0.42588 -2.033257,0.013 -2.874037,0.70354 -0.510124,0.41896 -0.911713,0.80018 -0.89244,0.84709 0.01921,0.0469 0.606241,0.009 1.304401,-0.0853 z m 5.795327,-19.34223 c 0.07644,1.17788 0.210911,2.36038 0.298842,2.62777 0.234929,0.71437 1.418712,2.37867 1.613622,2.2686 0.09221,-0.0521 -0.169288,-1.5923 -0.581113,-3.42274 -1.116432,-4.96227 -1.591871,-5.48851 -1.331351,-1.47363 z m -1.244756,19.28514 2.159393,0.13865 1.342091,-1.1887 c 0.738149,-0.65378 1.625881,-1.3308 1.972742,-1.50448 1.25589,-0.62886 0.889336,-0.89691 -1.317539,-0.96351 l -2.110667,-0.0637 -2.170277,1.60188 c -1.193647,0.88103 -2.139869,1.65573 -2.102696,1.72154 0.03711,0.0657 1.039299,0.18206 2.226953,0.25831 z m -3.073051,7.2946 c 0.402958,0.1121 0.930594,-0.41364 2.826995,-2.81678 1.230094,-1.55881 2.943212,-3.26933 5.003174,-4.99562 2.776575,-2.32682 3.536915,-3.15558 2.662451,-2.90198 -0.886613,0.2571 -6.046558,4.92509 -7.751718,7.01266 -1.081278,1.32376 -2.163227,2.59912 -2.404335,2.83413 -0.531109,0.5177 -0.63468,0.78466 -0.336538,0.8676 z m 1.286964,4.6148 c 0.270064,1.41452 0.956924,2.78747 1.780197,3.55839 0.640708,0.59997 4.027385,1.98451 4.111825,1.68099 0.02653,-0.0954 -0.387967,-0.52358 -0.921143,-0.95147 -0.533185,-0.4279 -1.833877,-2.0828 -2.890433,-3.67755 -1.056557,-1.59474 -2.01472,-2.9258 -2.129262,-2.95789 -0.259336,-0.0727 -0.240778,0.83194 0.04882,2.34753 z m 6.078398,-21.78997 c 0.184211,0.98919 0.213408,0.91232 1.206308,-3.17588 1.127884,-4.64391 1.325562,-5.98786 0.816701,-5.55228 -0.177214,0.15169 -0.747363,1.9495 -1.266998,3.99513 -0.727316,2.86328 -0.901339,3.95263 -0.756011,4.73303 z m -2.683044,19.71506 c 2.63878,0.48361 6.246797,0.74418 6.326716,0.45691 0.116579,-0.41908 -6.04562,-1.75969 -7.768762,-1.69006 -1.43204,0.0578 -1.491949,0.0879 -0.957372,0.4798 0.313642,0.22997 1.393385,0.56897 2.399418,0.75334 z m 2.165848,-13.95542 c 1.700604,0.1926 4.973653,0.22769 5.735917,0.0615 1.341213,-0.29244 4.663054,-1.53933 6.312223,-2.36938 0.94422,-0.47522 1.82531,-0.74654 2.00117,-0.61622 0.1728,0.12809 0.40711,0.0951 0.52064,-0.0732 0.11355,-0.16834 0.0788,-0.0368 -0.0771,0.29214 -0.15608,0.32896 -0.64409,1.02699 -1.08452,1.55117 -1.43425,1.70698 -1.70495,2.16381 -3.320247,5.60314 -2.182153,4.64631 -1.973829,4.83417 0.890557,0.80309 1.79549,-2.52682 3.70719,-6.00383 4.1816,-7.60552 0.34465,-1.16356 0.39043,-1.01086 0.53295,1.77667 0.0798,1.56091 0.96327,9.46708 1.09008,9.75512 0.41202,0.93592 0.76015,-4.4503 0.46819,-7.24384 -0.0874,-0.83644 -0.38902,-2.3998 -0.67023,-3.47411 -0.28121,-1.07431 -0.4935,-2.19552 -0.47175,-2.49156 0.0398,-0.54186 -0.057,-0.58148 -1.72781,-0.70741 -1.89927,-0.14313 -5.294678,-3.42579 -6.832485,-6.60558 -0.814602,-1.68441 -0.911998,-1.65466 -0.803465,0.24534 0.09243,1.61798 1.375682,3.78251 3.155142,5.32196 1.151228,0.99596 1.532708,1.18117 3.077418,1.49414 1.72798,0.3501 2.1036,0.69295 0.72062,0.65778 -0.38399,-0.01 -1.83779,0.43634 -3.230653,0.99135 -2.979895,1.1874 -6.646196,2.01271 -8.784097,1.97737 -2.568307,-0.0425 -3.758238,0.42118 -1.683941,0.65609 z m 2.5743,-2.83202 c 1.894228,-1.09793 3.056709,-1.92266 2.878842,-2.04254 -0.384225,-0.25898 -3.612233,1.27774 -4.870274,2.31854 -1.975167,1.6341 -1.093255,1.51187 1.991432,-0.276 z m 9.77922,-25.28239 c 3.32224,1.36184 5.67266,2.04341 7.40654,2.14762 0.74226,0.0446 1.66033,0.20926 2.04015,0.36581 0.54496,0.22458 0.0152,0.35501 -2.51232,0.61842 -1.7616,0.18358 -3.09883,0.40393 -2.97162,0.48967 0.33713,0.22724 5.48875,0.0262 6.34768,-0.24769 1.1796,-0.37617 3.16271,-0.3485 5.63463,0.0786 1.26976,0.21941 2.51109,0.30819 2.75849,0.19729 0.24741,-0.11091 0.73277,-0.0614 1.07857,0.11003 0.85474,0.42371 7.18887,0.39681 7.74176,-0.0329 0.40909,-0.31792 0.42991,-0.3114 0.31576,0.099 -0.28511,1.02489 -2.92913,4.12991 -5.28444,6.20582 -2.59583,2.2879 -8.35213,6.81134 -8.85234,6.9564 -0.15305,0.0444 -1.74733,-0.28623 -3.54279,-0.7347 -2.89456,-0.72303 -9.10854,-1.74209 -9.44926,-1.54967 -0.63257,0.35717 8.67528,2.71141 11.47944,2.90348 l 0.93692,0.0642 -0.68379,0.59904 c -0.8557,0.74965 -3.31365,2.14579 -6.30163,3.57926 -1.26376,0.60631 -2.32501,1.20039 -2.35833,1.32017 -0.0333,0.11976 0.21968,0.29576 0.56221,0.39105 0.46317,0.12885 1.92872,-0.56056 5.71786,-2.68978 5.18215,-2.91196 7.5949,-4.65713 11.9049,-8.61091 3.09753,-2.84155 3.08125,-2.8235 4.54132,-5.03584 0.68055,-1.03121 1.93976,-2.4889 2.79823,-3.23928 1.06297,-0.92916 1.85036,-1.90268 2.46851,-3.05209 1.58112,-2.93994 1.64935,-4.40791 0.0954,-2.0523 -0.44201,0.67004 -1.2777,1.7043 -1.85707,2.29835 -1.25715,1.28898 -2.86096,1.73886 -6.17766,1.73289 -1.20777,-0.002 -2.64153,-9.5e-4 -3.18615,0.003 -0.8738,0.006 -1.07111,-0.0971 -1.67868,-0.87612 -0.67473,-0.86519 -5.16745,-5.23164 -5.46932,-5.31562 -0.0844,-0.0235 -0.23391,0.24703 -0.3324,0.60108 -0.1424,0.51189 0.0896,0.94152 1.13287,2.09774 0.72157,0.7997 1.96215,1.89325 2.75685,2.43012 0.79468,0.53687 1.4208,1.06268 1.39138,1.16846 -0.11366,0.40855 -5.7898,-0.68936 -13.291,-2.57081 -8.719472,-2.18702 -8.100578,-2.05021 -7.933178,-1.75379 0.06743,0.1203 1.315438,0.707 2.772518,1.30429 z M 89.71973,164.8106 c 0.352178,0.098 7.289449,-3.25548 8.743097,-4.22639 1.766833,-1.18011 3.073083,-2.33132 3.214103,-2.83274 0.13376,-0.47707 -3.329776,0.97741 -6.269139,2.63219 -3.294103,1.85448 -6.359415,4.24017 -5.688061,4.42694 z m 17.07767,-36.74385 c 1.2608,1.75155 3.59481,3.95478 3.96693,3.74463 0.34107,-0.19265 -1.24125,-2.73037 -2.32407,-3.72728 -1.37955,-1.27015 -2.81872,-2.27801 -2.88952,-2.02354 -0.0303,0.10885 0.53071,1.01162 1.24662,2.00622 z m -5.16234,14.51794 c 0.39543,0.11 5.33399,-2.675 6.62935,-3.7385 1.64713,-1.35227 3.54433,-3.30123 3.42289,-3.51627 -0.0404,-0.0717 -0.59538,0.24965 -1.23309,0.71415 -0.63771,0.46449 -2.02082,1.40819 -3.07357,2.09713 -2.46142,1.6108 -5.7175,3.97996 -5.80225,4.22176 -0.036,0.10326 -0.0107,0.20299 0.0567,0.22172 z m 10.78484,-15.94927 c 0.0569,0.0159 0.16879,-0.20652 0.24879,-0.49406 0.0989,-0.35563 -0.10437,-0.71955 -0.63581,-1.13807 -1.25162,-0.98572 -1.41424,-0.86007 -0.53598,0.41419 0.45081,0.65407 0.86614,1.20218 0.92299,1.21797 z m -0.24579,5.29822 c 0.12378,0.13401 0.32541,0.18675 0.44794,0.11736 0.33701,-0.19104 2.45813,-8.02741 2.35145,-8.68726 -0.0821,-0.50796 -0.14273,-0.47669 -0.5189,0.26757 -0.71448,1.41364 -2.53197,8.03025 -2.28059,8.30235 z m -0.84846,6.56341 c 0.36984,1.83723 1.57025,4.75956 2.31768,5.64223 1.25217,1.47874 1.51542,1.20456 0.59222,-0.61678 -0.97718,-1.92785 -1.60457,-4.77866 -1.51156,-6.86845 0.0343,-0.77171 -0.0104,-1.42337 -0.0995,-1.44814 -0.22885,-0.0637 -1.06937,1.09161 -1.29612,1.78146 -0.10462,0.31824 -0.10585,0.99761 -0.003,1.50968 z m 4.21608,-5.65408 c 1.18026,0.23678 2.31916,0.42449 2.53091,0.41707 0.21175,-0.007 -0.49629,-0.79431 -1.57324,-1.74875 -1.32235,-1.17177 -2.04454,-1.66057 -2.22398,-1.50529 -0.14616,0.12647 -0.40386,0.71964 -0.57268,1.31817 l -0.30688,1.08822 2.14591,0.43059 z m 3.79334,-6.0689 c 0.28186,1.68027 1.14013,3.13953 2.50701,4.26243 1.90801,1.56746 2.66765,1.83948 5.02325,1.79885 3.63156,-0.0626 5.43863,-1.32996 7.00535,-4.91292 0.8684,-1.98594 0.89261,-3.02129 0.12307,-5.25847 -0.65505,-1.90425 -1.09767,-2.35585 -3.44034,-3.50996 -2.65236,-1.30668 -4.05708,-1.37228 -6.23387,-0.29114 -1.93567,0.96139 -3.01955,1.93862 -3.90197,3.51806 -0.9743,1.74392 -1.30307,3.07818 -1.0825,4.39315 z m 3.329,-6.2062 c 1.68052,-0.96487 3.93287,-1.30748 5.29622,-0.8056 l 1.06651,0.39261 -1.38221,-0.15635 c -2.41378,-0.27304 -3.38436,0.80378 -2.89515,3.21205 0.12879,0.634 0.11588,1.11982 -0.0287,1.0796 -0.14457,-0.0402 -0.39675,-0.7901 -0.56043,-1.66639 -0.16366,-0.87627 -0.46814,-1.64069 -0.67661,-1.69869 -0.20847,-0.058 -0.7865,0.11329 -1.2845,0.38061 -1.36141,0.73083 -0.94675,0.0726 0.46486,-0.73784 z m -5.50382,19.91337 c 2.11817,-1.13703 4.41483,-4.46902 3.53154,-5.12356 -0.67909,-0.50324 -1.63599,0.33505 -2.91324,2.55213 -1.72102,2.98738 -1.7696,3.18945 -0.6183,2.57143 z m -5.36449,24.42838 c 0.083,0.0234 0.73639,-0.87603 1.45202,-1.99859 1.56185,-2.45002 2.43826,-5.29903 2.96611,-9.64207 0.43955,-3.61654 0.41601,-3.87293 -0.25763,-2.80738 -0.56432,0.89259 -4.44475,14.36808 -4.1605,14.44804 z m 15.32519,-49.50337 c 1.00452,1.7456 1.15151,1.88475 2.6087,2.46903 0.84931,0.34056 1.56139,0.55739 1.58241,0.48184 0.021,-0.0755 -0.71596,-0.86923 -1.63772,-1.76377 -0.92177,-0.89454 -2.08492,-2.04432 -2.58478,-2.55508 -0.49984,-0.51076 -0.93679,-0.82813 -0.97097,-0.70527 -0.0342,0.12289 0.41689,1.05581 1.00238,2.07322 z m -10.10997,34.61415 c 0.11613,0.1256 0.26082,0.0496 0.32163,-0.16896 0.0608,-0.21857 -0.004,-0.42931 -0.14435,-0.46831 -0.14021,-0.039 -0.28494,0.037 -0.32163,0.16895 -0.0367,0.13192 0.0283,0.34267 0.14435,0.46832 z m 16.09134,-50.712358 c 6.4505,0.01039 11.29843,-1.40022 7.98252,-2.322678 -0.72509,-0.201708 -1.87418,-0.09484 -4.11781,0.38294 -3.39255,0.722464 -5.84512,1.481387 -5.68776,1.760027 0.0552,0.09712 0.87531,0.178224 1.82305,0.179711 z m -16.09675,53.330948 c 0.0885,0.80647 0.65229,1.96542 1.86459,3.83281 1.52037,2.34192 3.96951,5.19411 4.61411,5.37343 0.12017,0.0334 -0.1042,-0.53564 -0.49849,-1.26458 -0.86397,-1.59719 -5.72732,-9.25553 -5.90992,-9.30631 -0.19831,-0.0552 -0.20722,0.11716 -0.0703,1.36468 z m 2.25881,-2.40832 c 0.71114,0.36664 2.03122,0.83344 2.93353,1.03737 1.62036,0.36617 1.63235,0.3638 0.97411,-0.19523 -0.82733,-0.7026 -5.42674,-2.28851 -5.29227,-1.8248 0.0504,0.17385 0.67349,0.61602 1.38463,0.98266 z m 13.0599,-38.53302 c 2.71818,0.22626 7.3726,0.0608 8.82674,-0.31385 1.14598,-0.29523 1.26515,-0.28086 1.30696,0.15754 0.10755,1.12787 -3.97113,9.37437 -5.83055,11.78848 -0.62068,0.80585 -0.96817,1.46243 -0.86793,1.63995 0.1,0.17769 0.30852,0.0796 0.52007,-0.24421 0.1941,-0.29712 0.89512,-1.01052 1.55784,-1.58534 1.49404,-1.29588 2.75446,-3.64061 3.98449,-7.41226 0.49684,-1.5233 1.11123,-3.26794 1.36542,-3.87693 l 0.46217,-1.10726 0.19336,2.40877 c 0.35644,4.43996 1.0571,10.15573 1.25186,10.21213 0.35589,0.10316 0.70529,-2.93572 0.64227,-5.58636 -0.0418,-1.7597 -0.29931,-3.37195 -0.78025,-4.88578 -0.62537,-1.96839 -0.65328,-2.25278 -0.2167,-2.20777 0.61832,0.0637 0.7675,-0.3424 0.26307,-0.71619 -0.22432,-0.16624 -0.55213,-0.1373 -0.81762,0.0722 -0.5412,0.42704 -0.61195,0.2126 -0.43876,-1.32971 0.18754,-1.67024 0.42785,-8.68825 0.30496,-8.905895 -0.34013,-0.602297 -0.69802,1.038665 -0.84953,3.895185 -0.0963,1.81503 -0.32133,4.07179 -0.50014,5.01505 l -0.3251,1.715 -2.13474,0.14102 c -1.17412,0.0776 -3.10655,0.19148 -4.29432,0.25313 -4.19935,0.21798 -5.37892,0.3317 -5.43236,0.52378 -0.0297,0.10681 0.78425,0.26393 1.80876,0.34925 z m 7.72638,-28.594197 c -0.01,2.753909 0.588,6.447911 1.5207,9.397856 0.5592,1.768694 1.13788,3.390322 1.28594,3.603631 0.48938,0.705041 0.24248,1.843177 -0.56935,2.624768 -0.83393,0.802871 -4.87027,6.577972 -4.63398,6.630172 0.23108,0.051 2.27334,-1.57132 3.36739,-2.67508 0.54304,-0.54784 1.36165,-1.71932 1.81914,-2.60329 0.4575,-0.883973 0.87813,-1.632952 0.93475,-1.664399 0.0569,-0.03107 0.91792,1.220644 1.91401,2.782439 2.15191,3.37408 7.27373,9.42135 7.44823,8.7941 0.0392,-0.14095 -0.689,-1.63253 -1.61826,-3.31456 -1.69837,-3.07414 -4.41152,-6.32476 -6.02279,-7.215873 -0.83486,-0.46171 -0.99357,-0.844997 -0.73836,-1.783064 0.10302,-0.3778 0.0823,-0.800302 -0.0456,-0.938744 -0.1279,-0.138475 -0.40666,-1.332768 -0.61941,-2.654032 -0.21277,-1.321268 -0.66326,-3.384842 -1.00112,-4.58573 -0.75233,-2.674082 -1.60789,-7.002391 -1.66927,-8.444828 -0.0455,-1.069579 -0.33927,-1.166567 -0.8346,-0.275562 -0.44511,0.800669 -0.53333,1.181912 -0.53736,2.322191 z m -7.93098,32.378527 c 0.25754,1.26144 0.71066,2.92887 1.00693,3.70541 0.6886,1.80488 1.84746,3.7757 1.96715,3.34544 0.0507,-0.1821 -0.0893,-1.38843 -0.31102,-2.68074 -0.40114,-2.33803 -1.43247,-5.32783 -2.36529,-6.85688 -0.45477,-0.74542 -0.49896,-0.76683 -0.62761,-0.30432 -0.0761,0.27366 0.0723,1.52965 0.32984,2.79109 z m 1.70854,-0.92936 c 0.91148,2.08458 1.63463,4.71592 1.87412,6.81932 0.1021,0.89693 0.25132,1.64906 0.33158,1.67138 0.22625,0.0629 2.84875,-4.30908 3.88233,-6.47231 0.50961,-1.06661 1.09874,-2.54272 1.30919,-3.28024 l 0.3824,-1.34101 -1.08904,0.21271 c -1.01395,0.19804 -3.36338,0.29645 -6.11311,0.25605 -0.63933,-0.009 -1.19356,0.0948 -1.2316,0.23161 -0.038,0.13677 0.2562,0.99286 0.65391,1.90242 z m -7.46786,32.46441 c -0.19709,1.24317 -0.29015,3.54813 -0.20679,5.12214 0.22235,4.19802 0.39051,4.25208 1.12112,0.36036 0.27948,-1.48856 0.52069,-3.41232 0.53602,-4.275 0.027,-1.5166 -0.37565,-4.77898 -0.5974,-4.84067 -0.17392,-0.0484 -0.46761,1.20263 -0.85296,3.63317 z m 1.61963,-4.73792 c -0.35339,5.28301 4.46841,9.79253 9.49529,8.88034 1.0006,-0.18157 1.30027,-0.35784 1.35777,-0.79863 0.0652,-0.49988 -0.0666,-0.59412 -1.13272,-0.81043 -0.6781,-0.13757 -1.24748,-0.38617 -1.30009,-0.56766 -0.0619,-0.2135 0.30429,-0.21215 1.08113,0.004 1.39643,0.38848 2.50439,0.2018 3.71413,-0.62575 0.48857,-0.33426 0.85147,-0.47519 0.80643,-0.31322 -0.0451,0.16196 -0.67096,0.63491 -1.3909,1.051 -0.71995,0.41606 -1.35178,0.9103 -1.40407,1.0983 -0.33664,1.21012 2.31874,-0.7338 3.49739,-2.56032 2.73216,-4.23394 2.02306,-9.47126 -1.67549,-12.37496 -1.29835,-1.01932 -4.07682,-1.55922 -6.01041,-1.16791 -2.30057,0.46557 -4.66397,2.1093 -5.80531,4.03758 -0.82634,1.39607 -1.11373,2.36275 -1.23318,4.14774 z m 5.3537,-8.45248 c 0.36092,0.1004 0.73218,-0.45129 0.80585,-1.19766 l 0.0613,-0.62084 -0.46024,0.55855 c -0.59267,0.71926 -0.73759,1.16796 -0.40697,1.25993 z m 1.81473,-2.41796 0.12865,1.64439 1.35663,0.14623 c 2.81292,0.30323 4.14947,0.86563 5.85613,2.46418 l 1.58036,1.48025 1.69978,-1.04186 c 1.02119,-0.62593 1.99981,-1.48071 2.45135,-2.1411 0.7997,-1.1696 1.362,-2.75399 1.01195,-2.85137 -0.11588,-0.0322 -0.082,-0.36266 0.0755,-0.73425 0.46163,-1.08964 -0.38678,-3.9922 -1.57681,-5.39457 -1.27205,-1.49901 -1.96757,-1.63121 -2.48036,-0.47147 l -0.37845,0.85592 -0.32425,-1.28763 c -0.32354,-1.28483 -0.32694,-1.28805 -1.55798,-1.47844 -2.73659,-0.42326 -5.23499,0.81241 -6.98644,3.45536 -0.58043,0.87584 -1.00075,3.50477 -0.856,5.35439 z m 10.66499,1.22099 c 0.60032,0.167 1.80591,-0.82577 2.04456,-1.68363 0.11435,-0.41104 0.0257,-1.20309 -0.19693,-1.76011 -0.22267,-0.55703 -0.37897,-1.10575 -0.34735,-1.2194 0.0997,-0.35838 0.85852,1.01877 1.22289,2.21935 l 0.34985,1.15275 -0.93165,0.80869 c -0.8602,0.74666 -2.162,1.0523 -2.43361,0.57135 -0.0628,-0.11104 0.0687,-0.15122 0.29223,-0.089 z m -14.74754,18.94319 c 1.1041,1.64607 1.41591,1.81036 1.09135,0.57518 -0.35926,-1.3673 -1.74357,-2.91989 -1.94805,-2.18489 -0.036,0.12932 0.34955,0.85367 0.8567,1.60971 z m 18.25491,-52.292696 c 4.39433,1.226616 7.47442,2.649986 9.5838,4.429086 0.69379,0.58517 1.31998,1.03088 1.39151,0.9905 0.24908,-0.14067 -1.36889,-2.22476 -2.46739,-3.17815 -2.63714,-2.288861 -6.26642,-3.761046 -9.87129,-4.004191 -1.60835,-0.108468 -2.34186,0.02694 -2.46075,0.4543 -0.0342,0.123033 1.68664,0.711837 3.82412,1.308455 z m -8.6505,22.760336 c 0.42986,-0.0829 1.37383,-0.14666 2.0977,-0.14166 0.73427,0.005 1.30448,-0.12838 1.28977,-0.30187 -0.0145,-0.171 -0.16038,-1.98572 -0.32418,-4.03266 -0.16381,-2.04695 -0.37117,-3.74212 -0.46082,-3.76706 -0.0897,-0.025 -0.60114,1.22952 -1.13666,2.78767 -0.53551,1.55816 -1.27898,3.35956 -1.65211,4.00315 -0.83423,1.43895 -0.80791,1.64421 0.1863,1.45243 z m 6.77479,-8.18106 c 1.03015,1.26838 2.52825,3.26501 3.32912,4.43697 0.8009,1.17193 1.52596,2.09138 1.61132,2.04319 0.2823,-0.15945 -0.4899,-1.8894 -1.69451,-3.79609 -1.05423,-1.66783 -4.19057,-5.14391 -4.79337,-5.31161 -0.57128,-0.15892 -0.19048,0.48769 1.54744,2.62754 z"
       id="path307"
       sodipodi:nodetypes="csssssssssssssssscsssssscsscsscssssssssssssssssscssssssscsssssssssscssssssssccsssscssssssssscsssssssssscssscssssscssssssssssscscssssssssssssssscsssssscscsssscssssssssssssssssssssssscsssccsssssssssssssssscsssssssssssssssscscsscssscssccssscssssssssssssssssssssssssssssssssssscssccsssssssssssssssssscssssssssssssssssssssssssssssssssssssssssssssssscssssssssccsssssscscccscssssccccscccssssssssscsssssssssssssssssssssssssscsssssssssscsssssssssssssssssssscssscssssssssssscssssccssssssssssscsssscsssssssssssssssssccsssssscssssssssssssscssssssssssssssssssssssssscsssssssssssscssssssccssccssssssscsssscccssssssssssscssssssssssssssssssssssssssssscssscssssssssscsssssscscscscssssssssscssssssssscsscsssscsssssssssssssscsssccsssccssssssscsssssssssssssccsscsssscsscsssssscssssssssscssssssscscssscssssssssssssss" /></g></svg>
