<?xml version="1.0" encoding="UTF-8" standalone="no"?>
<!-- Created with Inkscape (http://www.inkscape.org/) -->

<svg
   width="84.889183mm"
   height="55.830154mm"
   viewBox="0 0 84.889183 55.830154"
   version="1.1"
   id="svg5"
   xml:space="preserve"
   xmlns:inkscape="http://www.inkscape.org/namespaces/inkscape"
   xmlns:sodipodi="http://sodipodi.sourceforge.net/DTD/sodipodi-0.dtd"
   xmlns="http://www.w3.org/2000/svg"
   xmlns:svg="http://www.w3.org/2000/svg"><sodipodi:namedview
     id="namedview7"
     pagecolor="#ffffff"
     bordercolor="#000000"
     borderopacity="0.25"
     inkscape:showpageshadow="2"
     inkscape:pageopacity="0.0"
     inkscape:pagecheckerboard="0"
     inkscape:deskcolor="#d1d1d1"
     inkscape:document-units="mm"
     showgrid="false"
     inkscape:zoom="0.73851712"
     inkscape:cx="229.51398"
     inkscape:cy="561.93687"
     inkscape:window-width="1920"
     inkscape:window-height="1009"
     inkscape:window-x="2648"
     inkscape:window-y="-8"
     inkscape:window-maximized="1"
     inkscape:current-layer="layer1" /><defs
     id="defs2" /><g
     inkscape:label="Layer 1"
     inkscape:groupmode="layer"
     id="layer1"
     transform="translate(-44.560403,-77.410719)"><path
       style="fill:#846060;fill-opacity:1;stroke-width:0.264583"
       d="m 67.056233,133.06672 c -2.843853,-0.51148 -6.725131,-2.10806 -9.123177,-3.75286 -5.85579,-4.01644 -10.617929,-11.79828 -12.480285,-20.3941 -2.527868,-11.667534 0.42438,-22.560439 7.46828,-27.555694 3.941474,-2.795137 7.341846,-3.894548 12.082754,-3.906605 9.204915,-0.02341 16.577476,5.54398 19.337414,14.602642 0.860404,2.824025 0.877689,7.483446 0.03854,10.388587 -1.612886,5.5838 -5.415129,10.27862 -10.218687,12.61753 -0.889151,0.43294 -3.028606,1.13802 -4.75434,1.56684 -2.08828,0.51891 -3.346715,0.97604 -3.762634,1.36678 -1.936414,1.81916 -1.293686,6.26717 1.290597,8.93163 1.470502,1.51612 2.754869,2.14428 5.288738,2.58664 2.724949,0.47571 3.496001,0.84945 3.496001,1.69457 0,0.52522 -0.265332,0.78933 -1.315752,1.3097 -1.061532,0.52587 -1.777225,0.66323 -3.704167,0.71092 -1.313627,0.0325 -2.953104,-0.0425 -3.643278,-0.16658 z m 44.449997,0 c -2.84385,-0.51148 -6.72513,-2.10806 -9.12317,-3.75286 -4.807896,-3.29769 -9.028471,-9.33257 -11.32348,-16.19111 -1.71137,-5.11435 -2.387008,-10.42739 -1.956245,-15.383429 0.751589,-8.647235 4.713193,-14.932908 11.581245,-18.375376 5.18048,-2.596607 12.10609,-2.604918 17.57477,-0.02109 4.87523,2.303437 8.80467,7.048243 10.53187,12.717248 0.87422,2.869388 0.87838,7.491913 0.009,10.441717 -1.65892,5.63119 -5.38407,10.22457 -10.18953,12.5644 -0.88915,0.43294 -3.02861,1.13802 -4.75434,1.56684 -2.08828,0.51891 -3.34672,0.97604 -3.76264,1.36678 -1.93641,1.81916 -1.29368,6.26717 1.2906,8.93163 1.4705,1.51612 2.75487,2.14428 5.28874,2.58664 2.72495,0.47571 3.496,0.84945 3.496,1.69457 0,0.52522 -0.26533,0.78933 -1.31575,1.3097 -1.06153,0.52587 -1.77723,0.66323 -3.70417,0.71092 -1.31363,0.0325 -2.9531,-0.0425 -3.64328,-0.16658 z"
       id="path248" /></g></svg>
