<?xml version="1.0" encoding="UTF-8" standalone="no"?>
<!-- Created with Inkscape (http://www.inkscape.org/) -->

<svg
   width="92.600891mm"
   height="85.631126mm"
   viewBox="0 0 92.600891 85.631126"
   version="1.1"
   id="svg5"
   xml:space="preserve"
   xmlns:inkscape="http://www.inkscape.org/namespaces/inkscape"
   xmlns:sodipodi="http://sodipodi.sourceforge.net/DTD/sodipodi-0.dtd"
   xmlns="http://www.w3.org/2000/svg"
   xmlns:svg="http://www.w3.org/2000/svg"><sodipodi:namedview
     id="namedview7"
     pagecolor="#ffffff"
     bordercolor="#000000"
     borderopacity="0.25"
     inkscape:showpageshadow="2"
     inkscape:pageopacity="0.0"
     inkscape:pagecheckerboard="0"
     inkscape:deskcolor="#d1d1d1"
     inkscape:document-units="mm"
     showgrid="false" /><defs
     id="defs2" /><g
     inkscape:label="Layer 1"
     inkscape:groupmode="layer"
     id="layer1"
     transform="translate(-53.983648,-93.657842)"><path
       style="fill:#ffffff;fill-opacity:1;stroke-width:0.264583"
       d="m 112.81632,178.99081 c -8.27994,-1.57597 -15.12679,-5.96727 -19.46137,-12.48175 -1.70538,-2.56302 -3.28869,-5.9998 -3.96452,-8.6055 -0.42479,-1.63781 -0.53495,-1.81862 -1.01647,-1.66851 -0.29703,0.0926 -2.326,0.23079 -4.50881,0.30709 -3.38363,0.11828 -4.37031,0.0558 -6.69248,-0.42394 -11.018439,-2.27619 -19.473272,-10.36669 -22.601068,-21.62717 -0.495228,-1.78288 -0.577145,-2.77262 -0.587549,-7.09881 -0.01454,-6.0479 0.353086,-7.73621 2.765421,-12.7 3.300564,-6.79147 8.374212,-11.39609 15.738596,-14.28366 l 2.11667,-0.829935 1.32291,-2.13699 c 0.72761,-1.17534 1.52574,-2.50751 1.77363,-2.96038 l 0.45072,-0.82341 h 3.99336 3.99336 l 0.45072,0.82525 c 0.24789,0.45389 1.04602,1.59851 1.77363,2.54359 1.28235,1.66564 1.39188,1.74041 3.57187,2.43806 5.36053,1.715505 10.53339,5.416085 14.04726,10.049145 1.71535,2.2617 4.05367,6.98918 4.80528,9.71506 l 0.59434,2.15548 4.23333,-0.13738 4.23333,-0.13738 1.98438,-1.45989 c 1.09141,-0.80294 2.30831,-1.75979 2.70424,-2.12633 l 0.71986,-0.66645 3.36991,1.28759 c 3.65212,1.39541 4.31515,1.84978 4.32478,2.96377 0.003,0.40019 0.27135,1.63528 0.59532,2.74465 0.5329,1.82488 0.71505,2.11717 1.91193,3.06791 8.60368,6.83433 12.72834,18.08456 10.55221,28.78172 -1.90395,9.35921 -7.91487,16.97664 -16.61255,21.05251 -3.49488,1.63776 -6.74438,2.37839 -11.00528,2.50835 -2.43229,0.0742 -4.21159,-0.0128 -5.57696,-0.27269 z m 9.94258,-1.63851 c 5.58339,-1.08473 10.42554,-3.76534 14.57118,-8.06659 7.58689,-7.87166 9.84085,-19.4756 5.78296,-29.77207 -1.64692,-4.17889 -4.79634,-8.46795 -8.13834,-11.08324 -1.90627,-1.49177 -2.02989,-1.65464 -2.56371,-3.3776 -0.62682,-2.02315 -0.37567,-2.01373 -2.57525,-0.0966 -0.61888,0.53942 -1.28541,0.98077 -1.48117,0.98077 -0.19576,0 -0.576,-0.50602 -0.84498,-1.12448 -0.26898,-0.61846 -0.51795,-1.16685 -0.55328,-1.21865 -0.0353,-0.0518 -0.60592,0.11271 -1.26799,0.36556 -1.66731,0.63675 -2.00338,0.31949 -2.00338,-1.89128 0,-0.92807 -0.0785,-1.6874 -0.17439,-1.6874 -0.0959,0 -0.78177,0.45857 -1.52412,1.01905 l -1.34971,1.01904 -3.70141,0.14414 c -4.29834,0.16738 -7.07466,0.68715 -10.09079,1.88916 -7.93961,3.16416 -13.89842,10.02731 -16.29513,18.76816 -0.51137,1.86498 -0.59228,2.80258 -0.58631,6.79378 0.006,3.93891 0.0945,4.95324 0.59324,6.79378 2.44739,9.03124 8.31554,15.7248 16.83073,19.19814 4.62349,1.88592 10.11751,2.3671 15.37185,1.34629 z m -9.75682,-5.26547 c -12.18993,-2.7242 -19.71738,-14.02769 -17.51826,-26.30607 0.75842,-4.23455 3.0699,-8.67401 6.0202,-11.56248 2.45533,-2.40389 3.52401,-3.17491 6.17363,-4.45412 3.72188,-1.79688 5.15991,-2.10048 9.92188,-2.09472 3.96118,0.005 4.18994,0.0354 6.70795,0.8985 7.42255,2.54412 12.69409,8.20077 14.78509,15.86519 0.80389,2.9466 0.79919,8.36517 -0.01,11.21355 -2.23933,7.88525 -7.64405,13.57571 -15.13333,15.93339 -2.87849,0.90618 -8.08231,1.14706 -10.94745,0.50676 z m 6.8845,-1.17451 c 8.06158,-1.01084 14.6085,-6.40452 17.33769,-14.28364 0.84507,-2.43973 0.87045,-2.63786 0.86436,-6.74688 -0.006,-4.03744 -0.0438,-4.33982 -0.81659,-6.53455 -1.99652,-5.67006 -6.34381,-10.50692 -11.38604,-12.66827 -1.61445,-0.69204 -4.87948,-1.49008 -6.96356,-1.70205 -3.53679,-0.35973 -8.86939,0.92031 -12.2271,2.93499 -0.91494,0.54898 -2.74447,2.07835 -4.06564,3.39859 -2.08883,2.08739 -2.57987,2.76278 -3.76505,5.17858 -1.73664,3.53985 -2.24891,5.67277 -2.25589,9.39271 -0.006,3.35958 0.34674,5.28778 1.47756,8.06979 2.26724,5.57777 6.90771,10.02254 12.46291,11.93734 3.59456,1.23899 5.74137,1.47428 9.33735,1.02339 z M 87.79564,154.82875 c 0.37931,-0.10145 0.70526,-0.24398 0.72434,-0.31674 0.0191,-0.0728 -0.051,-1.27458 -0.15563,-2.6707 l -0.19031,-2.53841 -1.36069,0.2497 c -1.9301,0.3542 -7.91936,0.0858 -9.82736,-0.44035 -9.124559,-2.51631 -15.759021,-10.73952 -16.436122,-20.37207 -0.743472,-10.57676 6.243183,-20.34618 16.568412,-23.16755 10.80328,-2.95201 22.38028,2.9518 26.44208,13.48441 0.43693,1.13301 0.90642,2.55846 1.0433,3.16767 0.13688,0.60922 0.31385,1.17264 0.39327,1.25206 0.0794,0.0794 0.89365,-0.15141 1.80943,-0.51294 0.91577,-0.36154 1.99246,-0.7357 2.39265,-0.83149 0.40018,-0.0958 0.7276,-0.33975 0.7276,-0.54214 0,-0.6572 -1.54063,-5.10308 -2.26931,-6.54869 -3.5329,-7.0088 -9.76827,-12.33346 -16.99325,-14.51131 -1.77955,-0.536415 -2.01891,-0.697105 -3.02688,-2.032155 l -1.09452,-1.44968 -0.86959,1.72492 c -0.47828,0.9487 -1.00217,1.806845 -1.1642,1.906985 -0.16203,0.10014 -0.73034,-0.24268 -1.2629,-0.761815 l -0.96831,-0.9439 -1.12011,0.93184 c -0.61606,0.512505 -1.2438,0.855385 -1.39498,0.761945 -0.15118,-0.0934 -0.64616,-0.905345 -1.09995,-1.804245 -0.7278,-1.44166 -0.85969,-1.57653 -1.11856,-1.14386 -1.59026,2.657925 -2.10216,3.120925 -4.394522,3.974695 -11.446618,4.26319 -18.590701,15.09784 -17.903632,27.1525 0.757965,13.2985 10.90735,24.34993 24.055114,26.19304 1.73537,0.24327 7.31316,0.10425 8.49463,-0.21172 z m -0.22632,-6.87656 c 0.73375,-0.20781 0.80862,-0.34337 0.99052,-1.79343 0.50338,-4.01295 1.97178,-8.10471 4.22565,-11.77498 1.74208,-2.83683 5.68225,-6.82802 8.59466,-8.70593 2.48254,-1.60073 2.42224,-1.35225 1.22139,-5.03251 -2.19769,-6.73532 -7.65968,-11.84152 -14.72708,-13.76778 -2.85983,-0.77946 -7.15898,-0.7887 -10.09472,-0.0217 -7.42703,1.94044 -13.305643,7.82874 -15.219577,15.24467 -0.658353,2.55092 -0.724883,6.87148 -0.148385,9.63638 1.664304,7.98204 8.103624,14.46426 16.161712,16.26937 1.94742,0.43625 7.37982,0.40357 8.99583,-0.0541 z m 43.25937,-25.85345 0.66146,-0.71501 -0.92604,0.39164 c -2.29217,0.9694 -2.37572,1.03176 -2.09216,1.56161 0.26177,0.48912 0.28286,0.48886 0.9814,-0.0117 0.39264,-0.28135 1.01154,-0.8333 1.37534,-1.22655 z m -4.652,-0.49401 c -0.0929,-0.30938 -0.38388,-1.03876 -0.64659,-1.62085 -0.47631,-1.05535 -0.47771,-1.0561 -0.49703,-0.26458 -0.0107,0.43656 0.052,1.22564 0.13935,1.75349 0.12933,0.78197 0.25268,0.93518 0.66596,0.8271 0.37584,-0.0983 0.46348,-0.27836 0.33831,-0.69516 z M 80.83284,98.275525 c 0.2881,-0.34713 0.16476,-0.58773 -0.811,-1.58195 -0.63292,-0.6449 -1.19362,-1.1297 -1.246,-1.07732 -0.13919,0.1392 1.3311,3.06868 1.54016,3.06868 0.0974,0 0.32996,-0.18423 0.51684,-0.40941 z m 4.04811,-1.07732 c 0.40104,-0.8177 0.6863,-1.52957 0.63393,-1.58195 -0.0524,-0.0524 -0.61308,0.43242 -1.246,1.07732 -0.97575,0.99422 -1.0991,1.23482 -0.811,1.58195 0.18688,0.22518 0.41946,0.40941 0.51684,0.40941 0.0974,0 0.50519,-0.66903 0.90623,-1.48673 z"
       id="path248" /></g></svg>
