<?xml version="1.0" encoding="UTF-8" standalone="no"?>
<!-- Created with Inkscape (http://www.inkscape.org/) -->

<svg
   width="381.46503mm"
   height="75.435555mm"
   viewBox="0 0 381.46503 75.435555"
   version="1.1"
   id="svg5"
   xml:space="preserve"
   xmlns:inkscape="http://www.inkscape.org/namespaces/inkscape"
   xmlns:sodipodi="http://sodipodi.sourceforge.net/DTD/sodipodi-0.dtd"
   xmlns="http://www.w3.org/2000/svg"
   xmlns:svg="http://www.w3.org/2000/svg"><sodipodi:namedview
     id="namedview7"
     pagecolor="#ffffff"
     bordercolor="#000000"
     borderopacity="0.25"
     inkscape:showpageshadow="2"
     inkscape:pageopacity="0.0"
     inkscape:pagecheckerboard="0"
     inkscape:deskcolor="#d1d1d1"
     inkscape:document-units="mm"
     showgrid="false"
     inkscape:lockguides="true" /><defs
     id="defs2" /><g
     inkscape:label="Layer 1"
     inkscape:groupmode="layer"
     id="layer1"
     transform="translate(107.97376,-127.49474)"><path
       style="fill:#000000;stroke:#000000;stroke-width:0.465;stroke-dasharray:none;stroke-opacity:1"
       d="m 79.054573,202.39277 c -3.571782,-1.62794 -5.071374,-2.3 -7.805208,-3.49796 -1.74625,-0.7652 -4.008437,-1.77766 -5.027083,-2.24992 -2.927311,-1.35713 -4.613527,-1.86319 -6.746875,-2.02482 -2.032183,-0.15397 -2.340941,-0.11017 -7.805209,1.10723 -2.830163,0.63053 -3.74973,0.70984 -8.466666,0.73019 -4.428305,0.0191 -5.766515,-0.071 -8.202084,-0.55238 -6.60564,-1.30551 -11.556799,-3.48822 -17.197916,-7.58167 -0.291042,-0.21119 -2.017448,-0.68098 -3.836459,-1.04398 -5.6161513,-1.12074 -9.8359142,-2.12947 -14.552083,-3.47864 -6.5263607,-1.86701 -8.0594729,-2.34656 -15.610417,-4.88285 -15.729048,-5.28323 -23.497743,-7.1338 -37.438541,-8.91819 -5.340972,-0.68363 -21.999036,-0.68177 -26.9875,0.003 -9.131861,1.25357 -16.870476,3.236 -23.680212,6.06624 -3.05866,1.27123 -3.43958,1.39066 -3.43958,1.07841 0,-0.49384 8.955139,-3.78645 13.908582,-5.11387 15.174788,-4.06655 33.95046,-4.29438 52.468656,-0.63668 7.886539,1.55775 14.100434,3.2747 24.77172,6.84463 8.3373492,2.78915 11.4825545,3.79323 14.5520837,4.64562 1.16416663,0.32328 2.65244788,0.74611 3.3072916,0.93962 4.0537686,1.19788 14.4787597,3.45439 14.7421787,3.19097 0.08909,-0.0891 -0.610013,-0.96581 -1.553565,-1.94827 -3.044227,-3.16976 -5.1245952,-6.7889 -6.3658747,-11.07448 -0.8006874,-2.76441 -0.8602451,-9.10204 -0.1091433,-11.61389 1.5898072,-5.31666 3.550872,-8.60287 7.420909,-12.43542 6.786189,-6.72044 16.646594,-10.44134 27.669662,-10.44134 11.32962,0 21.209751,3.90417 28.181144,11.13588 2.31957,2.40619 3.450757,3.98388 4.856575,6.77356 0.952413,1.88994 2.151864,5.40626 2.151864,6.3084 0,0.33664 0.131218,0.69317 0.291598,0.79229 0.464587,0.28713 4.532164,-4.05219 5.607867,-5.98251 1.651341,-2.96329 1.860677,-3.76657 4.02486,-15.44453 0.672074,-3.62653 1.375294,-7.03876 1.562709,-7.58273 0.984284,-2.85691 3.250433,-5.3393 6.209054,-6.80152 1.892665,-0.93541 2.079096,-0.97355 4.770629,-0.97591 2.58793,-0.002 3.98733,0.1989 10.07703,1.44863 0.65485,0.13438 2.55985,0.49211 4.23334,0.79495 3.06243,0.55418 5.7079,1.0545 9.12812,1.72632 1.01865,0.20009 5.48349,1.03005 9.92188,1.84435 7.77581,1.42662 9.09978,1.67726 14.02291,2.65463 5.66047,1.12376 9.35929,4.87263 10.11206,10.24884 0.23942,1.70999 0.17934,2.39094 -0.56576,6.41111 -2.05881,11.1083 -2.7204,14.69167 -3.07324,16.64565 -0.46437,2.57159 -1.53939,4.90788 -3.02913,6.58304 -0.62034,0.69754 -1.06997,1.32618 -0.99918,1.39697 0.32251,0.3225 6.44398,3.20833 9.06463,4.2733 7.82584,3.18026 15.05296,5.05664 23.86147,6.19518 5.98861,0.77406 18.91813,0.84378 25.35103,0.13671 15.74773,-1.73093 27.28497,-4.12595 36.90937,-7.66203 5.5907,-2.05407 9.07778,-3.82254 16.27188,-8.25233 4.03905,-2.48706 6.36275,-3.6824 9.33259,-4.80083 1.86918,-0.70392 1.9122,-0.71282 1.9122,-0.3959 0,0.12602 -0.74414,0.49838 -1.65365,0.82745 -2.89155,1.04622 -8.76704,4.19719 -11.8401,6.34972 -3.91565,2.74273 -13.29719,6.86311 -19.84375,8.71538 -1.09141,0.3088 -2.34156,0.67349 -2.77813,0.8104 -1.69716,0.5323 -10.52271,2.38133 -14.46196,3.02993 -13.56699,2.23379 -24.72283,2.93141 -34.35366,2.14826 -13.42416,-1.09162 -23.49696,-3.82015 -35.30973,-9.56475 l -3.03073,-1.47385 -2.0329,1.00472 c -1.84805,0.91335 -2.26416,1.01344 -4.57613,1.10067 -2.18448,0.0824 -3.43894,-0.077 -8.89322,-1.12982 -16.88083,-3.25861 -19.58221,-3.54124 -25.20441,-2.63694 -3.11194,0.50054 -5.54819,1.18769 -13.82163,3.8984 -8.487407,2.78081 -9.872459,3.17278 -10.287119,2.91122 -0.92918,-0.58612 -0.895705,-0.63311 4.835625,-6.7875 3.075893,-3.30294 3.132112,-3.38372 3.021021,-4.34059 -0.06218,-0.53559 -0.462074,-0.96583 -1.590273,-1.71096 -1.614358,-1.06621 -2.840601,-2.61704 -3.381809,-4.27698 -0.471786,-1.44701 -0.229769,-4.51869 0.462402,-5.86881 2.525477,-4.92609 11.581313,-6.87391 20.698483,-4.45205 5.68605,1.51043 10.38298,3.8259 22.20369,10.9459 9.42894,5.67935 13.20252,7.89567 16.09153,9.45096 2.46668,1.32793 2.52585,1.31918 4.05573,-0.59975 1.95124,-2.44743 1.85915,-2.08379 5.2885,-20.88327 0.29199,-1.60072 0.64632,-3.40962 0.7874,-4.01976 1.18298,-5.11647 -1.79564,-10.85553 -6.6803,-12.87123 -1.51405,-0.62479 -6.54678,-1.62572 -28.91425,-5.75057 -1.60073,-0.29519 -3.74386,-0.70496 -4.7625,-0.91058 -1.01865,-0.20563 -3.22131,-0.62078 -4.8948,-0.92255 -1.67349,-0.30177 -3.57849,-0.6578 -4.23333,-0.79118 -4.62501,-0.94202 -6.01493,-1.11574 -8.02241,-1.00267 -2.838141,0.15985 -5.171848,1.196 -7.150735,3.17489 -2.361615,2.36161 -2.821818,3.67542 -4.521152,12.9072 -0.816994,4.43838 -1.674567,8.78416 -1.90572,9.65729 -0.976022,3.68669 -3.112709,7.18916 -5.954758,9.76106 -0.901763,0.81605 -1.738341,1.48373 -1.859063,1.48373 -0.120724,0 -0.219495,1.28467 -0.219495,2.85483 0,3.3999 -0.414843,5.21942 -1.857156,8.14554 -0.579292,1.17525 -1.053359,2.36588 -1.053478,2.64583 -1.19e-4,0.27996 -0.190534,1.40198 -0.423143,2.49338 -0.521515,2.44696 -0.358444,5.85646 0.379643,7.9375 0.283866,0.80037 1.728766,3.9163 3.210891,6.9243 2.299104,4.66608 2.651537,5.54987 2.400323,6.01927 -0.324588,0.6065 -1.095176,0.68359 -2.127914,0.21289 z m 1.716593,-0.45128 c 0.08818,-0.14268 -1.044062,-2.73229 -2.516092,-5.75469 -1.472031,-3.0224 -2.917732,-6.20965 -3.212677,-7.08278 -0.760116,-2.25019 -0.891249,-4.84996 -0.379119,-7.5162 0.235009,-1.2235 0.372566,-2.27927 0.305682,-2.34615 -0.06688,-0.0669 -0.693029,0.46297 -1.391434,1.17745 -1.678627,1.71727 -3.306315,2.80696 -6.24976,4.18403 -9.634392,4.50741 -22.239372,6.23208 -36.670869,5.01747 -2.675662,-0.22519 -6.007417,-0.58168 -7.403896,-0.79219 -1.396479,-0.21051 -2.955771,-0.37966 -3.465094,-0.37589 -0.887598,0.007 -0.904074,0.0238 -0.396875,0.41599 2.877089,2.22447 8.752707,4.90312 13.237937,6.03509 6.71049,1.69357 13.365446,1.5759 22.715154,-0.40164 2.798456,-0.59189 2.948596,-0.59731 5.291667,-0.19094 2.259973,0.39196 5.50156,1.66227 12.796739,5.01475 6.225136,2.86075 7.013517,3.14175 7.338637,2.6157 z m -29.598818,-13.203 c 13.463693,-2.0504 23.577507,-7.25765 24.324106,-12.52364 0.271015,-1.91155 0.233878,-8.66508 -0.0492,-8.94699 -0.128418,-0.12789 -1.043244,-0.1029 -2.081223,0.0568 -3.769101,0.5801 -6.401867,-0.61067 -6.673231,-3.01821 -0.182142,-1.61597 0.02323,-2.34548 0.913183,-3.24391 2.933253,-2.96117 6.315887,-1.00193 8.114556,4.69999 0.140145,0.44427 0.209659,0.43991 1.222169,-0.0766 1.026554,-0.52371 1.066519,-0.59069 0.912535,-1.5294 -1.726677,-10.52594 -11.384095,-19.66342 -24.200671,-22.89776 -4.005072,-1.01071 -5.924674,-1.22461 -10.980208,-1.22355 -3.678193,7.7e-4 -5.08481,0.11689 -7.718272,0.63715 -13.124701,2.59288 -22.824828,10.30342 -26.145299,20.78267 -0.9322779,2.94223 -1.1875903,7.58196 -0.5901479,10.72463 0.9104075,4.78894 3.5731499,9.65284 7.3004179,13.33529 l 2.03354,2.00909 2.241129,0.33985 c 8.807794,1.33564 12.646565,1.61098 20.894257,1.49865 5.278419,-0.0719 7.86937,-0.22614 10.482358,-0.62408 z m 36.281693,-6.62769 c 0.837324,-0.28102 4.02272,-1.30686 7.078657,-2.27966 3.055938,-0.97279 6.449222,-2.05747 7.540622,-2.4104 5.35459,-1.7315 9.95163,-2.3857 14.67912,-2.08897 1.80913,0.11355 7.11925,0.97408 14.07513,2.28094 6.14349,1.15423 11.54602,2.0986 12.00561,2.0986 1.71652,0 5.73109,-1.352 6.18227,-2.08202 0.0807,-0.13062 -1.72689,-1.28464 -4.01694,-2.56449 -2.29005,-1.27985 -6.54498,-3.77424 -9.4554,-5.5431 -17.50013,-10.63601 -21.8339,-12.71723 -29.48593,-14.16019 -4.60516,-0.86841 -8.563744,-0.55832 -12.311083,0.96436 -3.167872,1.28722 -4.524322,2.72063 -5.335476,5.63819 -0.416668,1.49867 -0.415518,1.69351 0.01947,3.30052 0.536417,1.98169 1.671717,3.46476 3.450085,4.50696 1.781117,1.0438 2.1892,2.21832 1.262057,3.63238 -0.253897,0.38723 -2.15827,2.51049 -4.231941,4.71836 -2.073672,2.20787 -3.770313,4.12346 -3.770313,4.25688 0,0.36823 0.637498,0.2943 2.314051,-0.26836 z m -10.551803,-7.53985 c 1.161839,-2.62653 1.805551,-8.19848 0.983586,-8.51389 -0.206248,-0.0791 -0.700683,0.0267 -1.098743,0.2353 l -0.723749,0.37922 -0.02574,4.5352 c -0.01416,2.49436 0.05799,4.53534 0.160324,4.53549 0.10233,1.6e-4 0.419272,-0.52693 0.704316,-1.17132 z m -3.00704,-7.77688 c 0.82653,-0.14585 1.076984,-0.31737 1.143482,-0.7831 0.199054,-1.39406 -1.48249,-4.47037 -2.923948,-5.34923 -1.53194,-0.93402 -3.314488,-0.51885 -4.416382,1.02861 -0.704411,0.98926 -0.741902,3.07195 -0.07099,3.94382 0.894328,1.16222 3.51078,1.6464 6.267841,1.1599 z"
       id="path433" /></g></svg>
