<?xml version="1.0" encoding="UTF-8" standalone="no"?>
<!-- Created with Inkscape (http://www.inkscape.org/) -->

<svg
   version="1.1"
   id="svg2"
   width="493.16754"
   height="551.60925"
   viewBox="0 0 493.16754 551.60926"
   sodipodi:docname="Kim_Logo_Illustrator.ai"
   xml:space="preserve"
   xmlns:inkscape="http://www.inkscape.org/namespaces/inkscape"
   xmlns:sodipodi="http://sodipodi.sourceforge.net/DTD/sodipodi-0.dtd"
   xmlns="http://www.w3.org/2000/svg"
   xmlns:svg="http://www.w3.org/2000/svg"><defs
     id="defs6" /><sodipodi:namedview
     id="namedview4"
     pagecolor="#ffffff"
     bordercolor="#000000"
     borderopacity="0.25"
     inkscape:showpageshadow="2"
     inkscape:pageopacity="0.0"
     inkscape:pagecheckerboard="0"
     inkscape:deskcolor="#d1d1d1"
     showgrid="false" /><g
     id="g10"
     inkscape:groupmode="layer"
     inkscape:label="Page 1"
     transform="matrix(1.3333333,0,0,-1.3333333,-104.03589,598.96262)"><path
       style="fill:#ffffff;fill-opacity:1;stroke-width:0.24"
       d="m 190.24746,35.923526 c -2.82086,0.945864 -4.98939,3.146832 -5.87889,5.96688 -0.57733,1.83036 -0.60481,3.055272 -0.11139,4.964304 0.71785,2.777304 3.05379,5.35296 5.68537,6.2688 0.84767,0.295008 1.93782,0.438984 3.30491,0.436536 1.78008,-0.0031 2.24254,-0.09905 3.62962,-0.752448 2.05221,-0.96672 3.31123,-2.12172 4.26653,-3.91404 3.16753,-5.942904 -0.84247,-12.991968 -7.59633,-13.35336 -1.42722,-0.07637 -2.19476,0.01272 -3.29982,0.383328 z m 5.4,2.419656 c 2.4042,1.085232 4.08,3.6408 4.08,6.221952 0,2.581152 -1.6758,5.13672 -4.08,6.221952 -1.22189,0.551544 -3.48248,0.637584 -4.72417,0.179784 -2.65257,-0.977976 -4.39583,-3.516696 -4.39583,-6.401736 0,-2.829024 1.73869,-5.431032 4.24295,-6.349752 1.38007,-0.50628 3.60125,-0.44808 4.87705,0.1278 z m 40.68,-2.419656 c -2.82086,0.945864 -4.98939,3.146832 -5.87889,5.96688 -0.57733,1.83036 -0.60481,3.055272 -0.11139,4.964304 0.71785,2.777304 3.05379,5.35296 5.68537,6.2688 0.84767,0.295008 1.93782,0.438984 3.30491,0.436536 1.78008,-0.0031 2.24254,-0.09905 3.62962,-0.752448 2.05221,-0.96672 3.31123,-2.12172 4.26653,-3.91404 3.16753,-5.942904 -0.84247,-12.991968 -7.59633,-13.35336 -1.42722,-0.07637 -2.19476,0.01272 -3.29982,0.383328 z m 5.4,2.419656 c 2.4042,1.085232 4.08,3.6408 4.08,6.221952 0,2.581152 -1.6758,5.13672 -4.08,6.221952 -1.22189,0.551544 -3.48248,0.637584 -4.72417,0.179784 -2.65257,-0.977976 -4.39583,-3.516696 -4.39583,-6.401736 0,-2.829024 1.73869,-5.431032 4.24295,-6.349752 1.38007,-0.50628 3.60125,-0.44808 4.87705,0.1278 z m 23.74305,-2.585304 c -3.54956,1.006992 -6.2806,4.260024 -6.61902,7.884168 -0.36251,3.882 1.80253,7.607184 5.39394,9.280824 1.15531,0.538392 1.68986,0.634704 3.52203,0.634704 1.83774,0 2.36537,-0.09569 3.53651,-0.641328 1.81067,-0.843648 2.80404,-1.62312 3.75368,-2.945472 l 0.77964,-1.08564 h -1.53308 c -1.34848,0 -1.60313,0.07608 -2.11491,0.631752 -1.57765,1.713048 -4.59352,2.244552 -6.82184,1.20228 -2.60256,-1.217328 -4.11065,-3.753768 -3.90826,-6.57324 0.1413,-1.968408 0.73947,-3.22284 2.16211,-4.5342 3.22056,-2.968584 8.12803,-2.069232 10.16103,1.862184 l 0.35745,0.691224 h -4.20616 -4.20617 v 1.2 1.2 h 5.66725 5.66726 l -0.16955,-1.130568 c -0.3314,-2.209992 -1.07858,-3.705048 -2.62395,-5.250432 -1.07633,-1.076328 -1.84015,-1.603224 -2.90101,-2.001192 -1.75547,-0.658536 -4.40168,-0.849264 -5.89695,-0.425064 z m -127.42305,8.832408 v 8.905152 l 3.78,-0.08515 c 3.71173,-0.08362 3.80385,-0.09859 5.1,-0.82908 1.83434,-1.033824 2.51981,-2.26776 2.51981,-4.536072 0,-2.385984 -0.69319,-3.586968 -2.62823,-4.553472 -1.22494,-0.611808 -1.76342,-0.726912 -3.78,-0.807912 l -2.35158,-0.09444 v -3.45209 -3.452088 h -1.32 -1.32 z m 7.40227,0.9156 c 1.00898,0.514728 1.47773,1.320216 1.47773,2.539248 0,2.096184 -1.2986,3 -4.31043,3 h -1.92957 v -3 -3 h 1.92957 c 1.42906,0 2.16382,0.11952 2.8327,0.460752 z m 14.67773,-0.940752 v 8.88 h 1.32 1.32 v -3.84 -3.84 h 3.72 3.72 v 3.84 3.84 h 1.32 1.32 v -8.88 -8.88 h -1.32 -1.32 v 3.84 3.84 h -3.72 -3.72 v -3.84 -3.84 h -1.32 -1.32 z m 54.72,-1.2 v 7.68 h -1.68 -1.68 v 1.2 1.2 h 4.68 4.68 v -1.2 -1.2 h -1.68 -1.68 v -7.68 -7.68 h -1.32 -1.32 z m 72.72,1.224192 v 8.904216 l 4.02,-0.09209 c 4.3305,-0.09917 5.2101,-0.327096 6.46855,-1.676232 1.41876,-1.521 1.81776,-4.711992 0.82819,-6.623304 -0.6436,-1.243056 -2.12053,-2.361168 -3.40572,-2.578296 -0.52306,-0.08837 -0.95102,-0.20784 -0.95102,-0.265488 0,-0.05765 1.07482,-1.533168 2.38848,-3.278904 l 2.38848,-3.174096 -1.34161,-0.07296 c -0.73788,-0.04013 -1.47201,-0.0228 -1.63141,0.03823 -0.15939,0.06118 -1.57548,1.916184 -3.14687,4.12224 l -2.85707,4.011 -0.0657,-4.109256 -0.0657,-4.109256 h -1.31433 -1.31434 z m 7.63062,0.303696 c 1.19485,0.627816 1.77646,1.71576 1.65722,3.099936 -0.18273,2.12112 -1.6226,3.052176 -4.72013,3.052176 h -1.92771 V 47.655782 44.26643 l 2.1,0.105576 c 1.34692,0.06775 2.38353,0.254592 2.89062,0.521016 z m 14.20733,-9.027888 c -0.001,0.099 1.48342,4.099728 3.299,8.890488 l 3.30105,8.710512 1.16619,-0.07051 1.16619,-0.07049 3.33281,-8.76 c 1.83302,-4.818 3.33369,-8.7924 3.3348,-8.831976 0,-0.0396 -0.61759,-0.0396 -1.37489,0 l -1.3769,0.07198 -0.93687,2.586552 -0.93686,2.586552 -3.24573,-0.06655 -3.24573,-0.06655 -0.9578,-2.58 -0.9578,-2.58 h -1.2827 c -0.70549,0 -1.28363,0.081 -1.28476,0.18 z m 9.02373,10.56 c -0.56363,1.683 -1.07532,3.21372 -1.1371,3.401616 -0.0907,0.275976 -2.36458,-5.794848 -2.36458,-6.313056 0,-0.0817 1.01846,-0.14856 2.26323,-0.14856 h 2.26322 z m 16.65832,-1.834848 v 8.905152 l 3.78,-0.08515 c 3.71172,-0.08362 3.80384,-0.09859 5.1,-0.82908 1.83435,-1.033824 2.51981,-2.26776 2.51981,-4.536072 0,-2.385984 -0.69319,-3.586968 -2.62824,-4.553472 -1.22493,-0.611808 -1.76342,-0.726912 -3.78,-0.807912 l -2.35157,-0.09444 v -3.45209 -3.452088 h -1.32 -1.32 z m 7.40228,0.9156 c 1.00898,0.514728 1.47772,1.320216 1.47772,2.539248 0,2.096184 -1.29859,3 -4.31044,3 h -1.92956 v -3 -3 h 1.92956 c 1.42908,0 2.16384,0.11952 2.83272,0.460752 z m 14.67772,-0.940752 v 8.88 h 1.32 1.32 v -3.84 -3.84 h 3.72 3.72 v 3.84 3.84 h 1.32 1.32 v -8.88 -8.88 h -1.32 -1.32 v 3.84 3.84 h -3.72 -3.72 v -3.84 -3.84 h -1.32 -1.32 z m 28.56,-5.576832 v 3.303192 l -2.64,5.39364 c -1.452,2.966496 -2.64,5.47608 -2.64,5.576832 0,0.100728 0.621,0.178728 1.38,0.17328 l 1.38,-0.0098 1.89579,-4.074336 c 1.04268,-2.24088 1.96068,-4.012728 2.04,-3.93744 0.0793,0.07529 0.96137,1.886184 1.96008,4.024224 l 1.81589,3.887328 1.36411,0.07198 c 0.75029,0.0396 1.36413,-0.02546 1.36413,-0.144552 0,-0.119088 -1.188,-2.66868 -2.64,-5.6658 l -2.64,-5.449272 v -3.226176 -3.226176 h -1.32 -1.32 v 3.303168 z M 98.844726,88.628366 c -10.07565,1.8204 -17.79632,9.279218 -20.22264,19.536764 -0.39219,1.65804 -0.43245,4.00037 -0.51047,29.7 l -0.0847,27.90001 h 5.04446 5.04446 l 0.0658,-27.78001 0.0658,-27.78 0.52916,-1.38607 c 1.55538,-4.07412 4.24551,-7.25299 7.51084,-8.875416 3.43831,-1.70839 1.65642,-1.61851 32.090434,-1.61851 h 27.42957 v -5.04 -5.04 l -27.54,0.0216 c -22.64943,0.01776 -27.87434,0.08196 -29.422734,0.361704 z m 271.522734,4.525228 v 4.91983 l 27.54,0.0658 27.54,0.0659 1.8,0.64054 c 2.7392,0.97478 4.019,1.787706 6.14544,3.903636 1.49811,1.49067 2.1487,2.35997 2.82932,3.78032 1.63639,3.415 1.57646,2.19568 1.58107,32.1755 l 0.004,27.06001 h 5.04 5.04 v -26.25457 c 0,-16.45087 -0.0932,-27.16248 -0.2495,-28.68598 -1.08895,-10.6115 -8.18618,-18.949624 -18.6684,-21.93244 -1.84054,-0.523728 -1.86622,-0.524232 -30.2221,-0.591288 l -28.38,-0.06713 z m -59.52,99.131526 v 37.07996 l 5.95333,-6.05997 c 3.27434,-3.33298 11.56334,-11.80366 18.41999,-18.82372 l 12.46668,-12.76378 0.0615,18.70377 0.0615,18.70376 h 7.43854 7.43853 v -37.0087 -37.00873 l -0.97471,0.94872 c -0.53609,0.52179 -8.82509,8.96497 -18.42,18.76261 l -17.44529,17.81393 -0.0615,-18.71393 -0.0615,-18.71391 h -7.43854 -7.43854 z m -122.46873,-4.49348 -0.63855,0.66648 79.66435,79.66408 79.66433,79.66408 0.60932,-0.57241 c 0.33511,-0.31482 0.60928,-0.68864 0.60928,-0.8307 0,-0.25721 -158.87822,-159.25803 -159.13523,-159.25803 -0.0742,0 -0.42231,0.29993 -0.7735,0.6665 z m -34.49127,150.1735 v 37.08 h 7.4385 7.43851 l 0.0615,-18.2991 0.0615,-18.2991 9.80522,18.2991 9.80522,18.2991 h 8.52046 c 7.69362,0 8.50623,-0.0371 8.37386,-0.38204 -0.14026,-0.36551 -16.98677,-31.55368 -18.40604,-34.07535 l -0.68518,-1.21739 11.23177,-19.18261 11.23177,-19.18261 -9.36371,-0.0628 c -5.15004,-0.0345 -9.45672,0.0302 -9.57039,0.14386 -0.11368,0.11367 -4.89935,8.40066 -10.63483,18.41553 l -10.42815,18.20886 v -18.41271 -18.41271 h -7.44 -7.44 z M 78.287456,399.1337 c 0,23.05728 0.0564,27.77036 0.35227,29.46 1.69225,9.66273 8.65092,17.15024 18.54962,19.95935 l 1.85811,0.5273 28.380004,0.069 28.38,0.069 v -4.91981 -4.91982 l -27.54,-0.0668 -27.54,-0.0668 -1.680004,-0.56123 c -5.10958,-1.70692 -8.81673,-5.49224 -10.3799,-10.59877 -0.36677,-1.19819 -0.41097,-3.86146 -0.47887,-28.86 l -0.0748,-27.54 h -4.91321 -4.91321 z m 359.520004,-0.13898 c 0,30.25997 0.0879,28.50128 -1.59753,31.95254 -0.62782,1.28554 -1.37914,2.29506 -2.6964,3.62295 -1.96899,1.98491 -3.26974,2.84707 -5.75736,3.81608 l -1.58871,0.61885 -27.96,0.12 -27.96,0.12 -0.0649,4.98842 -0.0649,4.98842 28.2649,-0.0719 28.26489,-0.0719 2.3294,-0.64001 c 9.0479,-2.48595 15.65385,-9.09154 18.14457,-18.14365 l 0.64095,-2.32939 0.0701,-28.14 0.0701,-28.14 h -5.04756 -5.04756 z"
       id="path4282"
       inkscape:export-filename="..\Web Apps\kimberly-nguyen-photography\public\black-logo.svg"
       inkscape:export-xdpi="96"
       inkscape:export-ydpi="96" /></g></svg>
