<?xml version="1.0" encoding="UTF-8" standalone="no"?>
<!-- Created with Inkscape (http://www.inkscape.org/) -->

<svg
   width="132.34831mm"
   height="148.01512mm"
   viewBox="0 0 132.34831 148.01512"
   version="1.1"
   id="svg5"
   xml:space="preserve"
   xmlns:inkscape="http://www.inkscape.org/namespaces/inkscape"
   xmlns:sodipodi="http://sodipodi.sourceforge.net/DTD/sodipodi-0.dtd"
   xmlns="http://www.w3.org/2000/svg"
   xmlns:svg="http://www.w3.org/2000/svg"><sodipodi:namedview
     id="namedview7"
     pagecolor="#ffffff"
     bordercolor="#000000"
     borderopacity="0.25"
     inkscape:showpageshadow="2"
     inkscape:pageopacity="0.0"
     inkscape:pagecheckerboard="0"
     inkscape:deskcolor="#d1d1d1"
     inkscape:document-units="mm"
     showgrid="false" /><defs
     id="defs2" /><g
     inkscape:label="Layer 1"
     inkscape:groupmode="layer"
     id="layer1"
     transform="translate(-10.135905,-19.048202)"><path
       style="fill:#ffffff;fill-opacity:1;stroke-width:0.264583"
       d="m 54.248868,166.95229 c -2.640944,-0.71387 -3.240903,-4.1954 -0.984626,-5.71372 2.309868,-1.5544 5.054103,-0.0247 5.054103,2.81728 0,1.95048 -2.083361,3.4333 -4.069477,2.89644 z m 2.345626,-0.91642 c 0.756124,-0.49543 1.30741,-1.97362 1.051132,-2.81845 -0.991738,-3.26925 -5.66624,-2.12135 -5.036257,1.23675 0.324348,1.72892 2.464216,2.57824 3.985125,1.5817 z m 11.51762,0.92192 c -2.394167,-0.51241 -3.150933,-3.65083 -1.306433,-5.41797 0.693462,-0.66438 1.014455,-0.77395 2.267365,-0.77395 1.311955,0 1.537044,0.0867 2.226033,0.85786 0.97618,1.09254 1.190873,1.96813 0.801356,3.26823 -0.469688,1.56768 -2.179018,2.45306 -3.988321,2.06583 z m 2.662,-1.27677 c 1.359905,-1.35991 0.953547,-3.5215 -0.798428,-4.2472 -1.725496,-0.71472 -3.455258,0.52256 -3.455258,2.47151 0,0.99187 0.129281,1.28791 0.814052,1.86411 1.138957,0.95837 2.425928,0.92529 3.439634,-0.0884 z m 6.538309,1.35667 c -0.899769,-0.10947 -2.238571,-1.33611 -2.471584,-2.26451 -0.684387,-2.72682 2.142834,-4.97473 4.719159,-3.75218 0.84954,0.40313 1.432999,1.10321 1.152887,1.38332 -0.05912,0.0591 -0.554791,-0.19604 -1.101484,-0.56703 -1.14563,-0.77745 -1.699691,-0.83229 -2.777519,-0.27493 -0.961142,0.49703 -1.31762,1.14133 -1.31762,2.38147 0,2.16575 2.731048,3.34083 4.326991,1.86176 1.051684,-0.97467 0.883097,-1.20326 -0.887408,-1.20326 -0.881943,0 -1.5875,-0.11759 -1.5875,-0.26458 0,-0.15287 0.837848,-0.26458 1.984375,-0.26458 1.802728,0 1.984375,0.048 1.984375,0.52499 0,1.35419 -2.164066,2.66593 -4.024672,2.43953 z m -39.102412,-3.26187 v -3.20777 l 1.499164,0.12433 c 1.624761,0.13473 2.469586,0.78335 2.469586,1.89602 0,1.09701 -0.70454,1.71439 -2.055513,1.8012 l -1.251779,0.0804 -0.08064,1.25677 c -0.04436,0.69122 -0.193183,1.25677 -0.330729,1.25677 -0.143309,0 -0.250087,-1.36961 -0.250087,-3.20776 z m 2.897137,-0.34811 c 0.173855,-0.20949 0.277731,-0.7155 0.230836,-1.12448 -0.07532,-0.65684 -0.216916,-0.76118 -1.213506,-0.89419 -0.62053,-0.0828 -1.186077,-0.0927 -1.256771,-0.022 -0.07069,0.0707 -0.128529,0.64446 -0.128529,1.27505 v 1.14653 h 1.025937 c 0.570011,0 1.166411,-0.16926 1.342033,-0.38087 z m 3.452863,0.38087 c 0,-2.64583 0.06615,-3.175 0.396875,-3.175 0.304673,0 0.396875,0.33808 0.396875,1.45521 v 1.45521 h 1.441381 1.441382 l 0.07997,-1.36827 c 0.04662,-0.79766 0.217895,-1.41371 0.410702,-1.47725 0.252349,-0.0832 0.330729,0.64867 0.330729,3.08805 0,2.66544 -0.066,3.19705 -0.396875,3.19705 -0.304673,0 -0.396875,-0.33808 -0.396875,-1.45521 v -1.4552 h -1.455208 -1.455209 v 1.4552 c 0,1.11713 -0.0922,1.45521 -0.396875,1.45521 -0.330729,0 -0.396875,-0.52916 -0.396875,-3.175 z m 17.140722,0.33073 -0.0751,-2.84427 -0.727605,0.0851 c -0.521186,0.0609 -0.727604,-0.0329 -0.727604,-0.33073 0,-0.33842 0.344691,-0.41581 1.852084,-0.41581 1.469908,0 1.852083,0.0819 1.852083,0.39688 0,0.26458 -0.264583,0.39687 -0.79375,0.39687 h -0.79375 v 2.77813 c 0,3.69357 -0.488548,3.63846 -0.586362,-0.0661 z m 22.282196,-0.36253 v -3.2068 l 1.626851,0.11768 c 1.818688,0.13155 2.606482,0.74602 2.606482,2.03303 0,0.83841 -0.668432,1.88164 -1.205627,1.88164 -0.499271,0 -0.481843,0.17066 0.10391,1.01749 0.834139,1.20592 0.889527,1.36376 0.478568,1.36376 -0.214387,0 -0.748062,-0.58225 -1.185942,-1.2939 l -0.796147,-1.29391 0.776377,-0.15527 c 1.069552,-0.21391 1.529377,-1.2326 0.953268,-2.11185 -0.304422,-0.4646 -0.719029,-0.67165 -1.49274,-0.74543 l -1.07125,-0.10216 v 2.85126 c 0,2.35807 -0.06865,2.85126 -0.396875,2.85126 -0.330949,0 -0.396875,-0.5327 -0.396875,-3.2068 z m 6.862689,1.95003 c 1.57464,-3.91892 2.07764,-4.96094 2.39474,-4.96094 0.32483,0 1.00224,1.38865 2.36923,4.85671 0.63699,1.61607 0.13739,1.96696 -0.59972,0.42121 -0.43846,-0.91945 -0.47816,-0.93806 -1.83494,-0.85989 -1.27973,0.0737 -1.41601,0.14627 -1.76527,0.93979 -0.20816,0.47294 -0.53385,0.85989 -0.72374,0.85989 -0.26155,0 -0.22283,-0.30472 0.1597,-1.25677 z m 3.10104,-2.57916 c -0.31406,-0.80008 -0.63055,-1.45469 -0.70331,-1.45469 -0.0728,0 -0.38925,0.65461 -0.70332,1.45469 l -0.57102,1.45468 h 1.27434 1.27433 z m 4.58835,0.66093 v -3.175 h 1.20802 c 1.939082,0 2.749662,0.59089 2.756682,2.00951 0.005,1.10856 -0.70949,1.69466 -2.0673,1.69466 h -1.103652 v 1.32292 c 0,0.99953 -0.097,1.32291 -0.39687,1.32291 -0.33073,0 -0.39688,-0.52916 -0.39688,-3.175 z m 3.232512,-0.682 c 0.45218,-0.99243 -5.3e-4,-1.54894 -1.34122,-1.64832 l -1.097542,-0.0814 v 1.20584 1.20584 h 1.064012 c 0.88673,0 1.11578,-0.11363 1.37475,-0.682 z m 3.38208,0.682 c 0,-1.94028 0.10289,-3.175 0.26458,-3.175 0.14552,0 0.26458,0.65485 0.26458,1.45521 v 1.45521 h 1.5875 1.5875 v -1.45521 c 0,-0.80036 0.11907,-1.45521 0.26459,-1.45521 0.16169,0 0.26458,1.23472 0.26458,3.175 0,1.94028 -0.10289,3.175 -0.26458,3.175 -0.14552,0 -0.26459,-0.65484 -0.26459,-1.45521 v -1.4552 h -1.5875 -1.5875 v 1.4552 c 0,0.80037 -0.11906,1.45521 -0.26458,1.45521 -0.16169,0 -0.26458,-1.23472 -0.26458,-3.175 z m 8.99583,2.2218 c 0,-0.55665 -0.43314,-1.8775 -1.04117,-3.175 -0.6562,-1.40029 -0.91876,-2.2218 -0.71011,-2.2218 0.18209,0 0.67251,0.71438 1.08982,1.5875 0.41732,0.87313 0.83404,1.5875 0.92604,1.5875 0.092,0 0.50873,-0.71437 0.92605,-1.5875 0.41731,-0.87312 0.91678,-1.5875 1.10993,-1.5875 0.23251,0 -0.007,0.71327 -0.71011,2.11079 -0.71289,1.41789 -1.06128,2.46015 -1.06128,3.175 0,0.58532 -0.11906,1.06421 -0.26459,1.06421 -0.14552,0 -0.26458,-0.42894 -0.26458,-0.9532 z M 15.913626,147.55783 c -1.993506,-0.81977 -3.114538,-1.69782 -4.135422,-3.23908 -1.548781,-2.33823 -1.614028,-2.89462 -1.614028,-13.7634 v -9.87385 h 1.705192 1.705191 l 0.08075,9.98802 c 0.07891,9.76157 0.09419,10.01317 0.673616,11.09717 0.659609,1.23401 1.856787,2.23538 3.216925,2.69077 0.607475,0.20339 4.063878,0.30112 10.649479,0.30112 h 9.750102 v 1.71979 1.71979 l -10.252605,-0.006 c -10.177106,-0.006 -10.263846,-0.0109 -11.779197,-0.63405 z m 98.760974,-1.05919 v -1.72207 l 10.12031,-0.0751 c 9.67168,-0.0718 10.16723,-0.0996 11.17865,-0.62787 0.58208,-0.304 1.41552,-1.05819 1.85208,-1.67596 l 0.79375,-1.12324 0.13229,-10.36258 0.13229,-10.36258 h 1.7198 1.71979 l 0.0695,9.63779 c 0.077,10.67943 -0.0381,11.7257 -1.54847,14.07947 -0.86831,1.35313 -1.83305,2.18302 -3.6804,3.16592 l -1.19062,0.63349 -10.64948,0.0774 -10.64948,0.0774 z m -2.14949,-22.84058 c -0.66196,-0.69122 -3.75311,-4.11007 -6.86922,-7.59742 l -5.665672,-6.34066 -0.0703,7.33284 -0.0703,7.33284 h -2.64165 -2.64165 V 110.49504 96.604405 l 0.72761,0.016 c 0.62028,0.0136 1.72281,1.1834 7.474482,7.930585 l 6.74687,7.91464 0.0701,-7.666 0.0701,-7.666005 h 2.64183 2.64184 v 13.890625 13.89063 h -0.60526 c -0.37675,0 -1.05964,-0.47447 -1.80881,-1.25677 z M 49.587095,112.39425 c 0,-0.19236 3.482578,-3.78163 7.739062,-7.97615 4.256485,-4.19453 17.050886,-16.920565 28.432002,-28.280072 11.381119,-11.3595 20.781991,-20.5646 20.890831,-20.45576 0.19453,0.19454 -56.474608,57.061732 -56.862997,57.061732 -0.109395,0 -0.198898,-0.15739 -0.198898,-0.34975 z M 38.331296,71.932018 c -0.06968,-0.18191 -0.09571,-6.28386 -0.05784,-13.5599 l 0.06885,-13.22917 2.70647,-0.0753 2.706474,-0.0753 0.07165,5.32374 0.07165,5.32373 3.310681,-5.24839 3.310681,-5.2484 3.137101,-0.0748 c 2.467205,-0.0588 3.109122,-0.002 3.00609,0.26458 -0.07205,0.18667 -1.991291,3.16555 -4.264969,6.61974 -2.273676,3.45419 -4.133959,6.38582 -4.133959,6.51473 0,0.12892 2.083594,3.22444 4.630208,6.87893 2.546615,3.65449 4.630209,6.70575 4.630209,6.78058 0,0.0748 -1.472674,0.13604 -3.272608,0.13604 h -3.27261 l -3.540411,-5.2062 -3.540413,-5.20622 -0.07174,5.20622 -0.07174,5.2062 h -2.648543 c -1.87488,0 -2.685553,-0.0966 -2.775236,-0.33072 z m -28.11511,-35.45417 0.08028,-10.3849 0.763437,-1.65298 c 0.909002,-1.96815 2.507301,-3.53462 4.614181,-4.522287 l 1.50155,-0.703899 10.384896,-0.08279 10.384896,-0.08279 v 1.868729 1.868728 l -10.120313,0.0044 c -9.984345,0.0043 -10.134194,0.01229 -11.153494,0.595313 -0.568249,0.325026 -1.401687,1.048356 -1.852083,1.607396 l -0.818903,1.01643 -0.07494,10.4268 -0.07494,10.42679 h -1.857426 -1.857423 z m 128.478144,-0.0419 -0.0749,-10.4268 -0.80909,-1.01643 c -0.44499,-0.55904 -1.33343,-1.28433 -1.97429,-1.611749 -1.14757,-0.586301 -1.31654,-0.595312 -11.16331,-0.595312 h -9.9981 V 20.933573 19.08149 h 9.34411 c 5.58617,0 9.97551,0.115621 10.91407,0.287492 3.05512,0.559459 5.33767,2.345321 6.69356,5.237006 l 0.69722,1.48696 0.0803,10.3849 0.0803,10.38489 h -1.85742 -1.85742 z"
       id="path302"
       inkscape:export-filename="black-logo.svg"
       inkscape:export-xdpi="96"
       inkscape:export-ydpi="96" /></g></svg>
